<svg xmlns="http://www.w3.org/2000/svg" xmlns:xlink="http://www.w3.org/1999/xlink" width="1080" zoomAndPan="magnify" viewBox="0 0 810 1439.999935" height="1920" preserveAspectRatio="xMidYMid meet" version="1.0"><path fill="#204938" d="M 267.042969 100.753906 C 267.84375 98.789062 270.003906 92.824219 270.242188 88.980469 C 270.316406 87.816406 270.203125 86.820312 269.90625 86.109375 C 269.621094 85.421875 269.167969 84.945312 268.570312 84.683594 C 264.738281 82.996094 261.664062 85.0625 259.308594 86.945312 C 255.453125 90.03125 249.28125 98.445312 246.230469 105.476562 C 245.023438 108.257812 240.285156 120.308594 240.59375 127.566406 C 240.75 131.285156 242.210938 133.820312 245.414062 134.117188 C 248.117188 134.367188 250.191406 133.300781 251.828125 131.832031 C 253.300781 130.507812 254.402344 128.855469 255.304688 127.714844 C 259.457031 122.476562 265.917969 103.523438 267.042969 100.753906 Z M 264.9375 99.894531 C 263.832031 102.609375 257.585938 121.175781 253.519531 126.304688 C 252.683594 127.359375 251.679688 128.910156 250.308594 130.136719 C 249.109375 131.214844 247.605469 132.035156 245.621094 131.851562 C 243.585938 131.664062 242.964844 129.835938 242.863281 127.46875 C 242.570312 120.535156 247.164062 109.039062 248.320312 106.382812 C 251.222656 99.6875 257.0625 91.65625 260.730469 88.726562 C 262.507812 87.300781 264.761719 85.488281 267.65625 86.765625 C 267.789062 86.824219 267.820312 86.988281 267.871094 87.167969 C 267.996094 87.617188 268.011719 88.191406 267.972656 88.839844 C 267.746094 92.449219 265.6875 98.050781 264.9375 99.894531 Z M 264.9375 99.894531 " fill-opacity="1" fill-rule="evenodd"/><path fill="#204938" d="M 240.828125 124.804688 C 238.261719 128.574219 236.785156 133.074219 236.488281 137.617188 C 236.414062 138.746094 236.429688 139.96875 236.71875 140.945312 C 236.972656 141.800781 237.425781 142.484375 238.101562 142.914062 C 238.789062 143.351562 239.75 143.554688 241.089844 143.222656 C 246.910156 141.773438 249.671875 136.363281 252.125 131.460938 C 252.40625 130.898438 252.175781 130.214844 251.617188 129.933594 C 251.054688 129.652344 250.371094 129.878906 250.089844 130.441406 C 248.96875 132.683594 247.808594 135.066406 246.253906 137.054688 C 244.808594 138.902344 243.015625 140.398438 240.542969 141.015625 C 240.019531 141.144531 239.636719 141.167969 239.355469 141.015625 C 238.9375 140.785156 238.851562 140.253906 238.777344 139.695312 C 238.699219 139.078125 238.714844 138.402344 238.757812 137.765625 C 239.027344 133.625 240.371094 129.519531 242.707031 126.085938 C 243.058594 125.566406 242.925781 124.859375 242.40625 124.503906 C 241.886719 124.152344 241.179688 124.285156 240.828125 124.804688 Z M 240.828125 124.804688 " fill-opacity="1" fill-rule="evenodd"/><path fill="#204938" d="M 195.59375 95.597656 C 195.425781 95.585938 195.253906 95.605469 195.09375 95.667969 C 192.277344 96.726562 190.929688 98.875 190.222656 101.40625 C 189.597656 103.628906 189.5 106.164062 189.160156 108.332031 C 188.121094 114.90625 186.03125 140.992188 186.933594 147.355469 C 187.335938 150.199219 188.320312 154.117188 190.34375 156.566406 C 191.863281 158.40625 193.929688 159.484375 196.699219 158.976562 C 198.777344 158.597656 200.472656 157.210938 201.75 155.367188 C 203.511719 152.832031 204.484375 149.4375 204.761719 147.144531 C 205.511719 140.910156 203.015625 116.257812 202.496094 110.011719 C 202.304688 107.734375 202.28125 103.402344 201.023438 100.1875 C 200.050781 97.691406 198.367188 95.839844 195.59375 95.597656 Z M 195.652344 97.894531 C 197.332031 98.152344 198.289062 99.4375 198.90625 101.015625 C 200.078125 104.019531 200.050781 108.070312 200.226562 110.199219 C 200.742188 116.371094 203.246094 140.714844 202.503906 146.871094 C 202.261719 148.878906 201.421875 151.851562 199.882812 154.070312 C 198.960938 155.398438 197.789062 156.464844 196.292969 156.742188 C 193.953125 157.167969 192.402344 155.839844 191.335938 154.015625 C 190.101562 151.902344 189.480469 149.132812 189.1875 147.035156 C 188.300781 140.78125 190.386719 115.148438 191.40625 108.683594 C 191.734375 106.601562 191.8125 104.160156 192.410156 102.019531 C 192.90625 100.253906 193.773438 98.699219 195.648438 97.894531 Z M 195.652344 97.894531 " fill-opacity="1" fill-rule="evenodd"/><path fill="#204938" d="M 190.804688 156.441406 C 190.804688 156.441406 190.324219 160.078125 190.886719 163.683594 C 191.289062 166.285156 192.265625 168.839844 194.15625 170.238281 C 195.785156 171.445312 197.410156 171.730469 198.816406 171.449219 C 200.25 171.160156 201.480469 170.265625 202.292969 169.019531 C 203.949219 166.484375 204.976562 159.199219 202.628906 153.082031 C 202.40625 152.496094 201.75 152.203125 201.164062 152.425781 C 200.578125 152.652344 200.28125 153.308594 200.507812 153.894531 C 202.550781 159.222656 201.828125 165.566406 200.390625 167.777344 C 199.914062 168.503906 199.207031 169.050781 198.367188 169.21875 C 197.5 169.394531 196.511719 169.15625 195.507812 168.414062 C 194.0625 167.339844 193.441406 165.324219 193.132812 163.332031 C 192.625 160.050781 193.0625 156.738281 193.0625 156.738281 C 193.144531 156.117188 192.703125 155.542969 192.082031 155.460938 C 191.460938 155.378906 190.886719 155.820312 190.804688 156.441406 Z M 190.804688 156.441406 " fill-opacity="1" fill-rule="evenodd"/><path fill="#204938" d="M 196.910156 170.367188 C 196.910156 170.367188 196.488281 183.347656 192.578125 192.449219 C 192.332031 193.023438 192.597656 193.695312 193.175781 193.941406 C 193.753906 194.191406 194.421875 193.921875 194.667969 193.347656 C 198.726562 183.90625 199.183594 170.441406 199.183594 170.441406 C 199.203125 169.816406 198.710938 169.289062 198.085938 169.265625 C 197.457031 169.246094 196.929688 169.738281 196.910156 170.367188 Z M 196.910156 170.367188 " fill-opacity="1" fill-rule="evenodd"/><path fill="#204938" d="M 118.550781 177.980469 C 118.238281 178.410156 118.269531 178.996094 118.621094 179.398438 C 118.972656 179.792969 119.554688 179.894531 120.019531 179.636719 C 135.503906 171.140625 149.265625 174.671875 157.226562 176.300781 C 159.4375 176.75 161.234375 177.050781 162.542969 176.984375 C 163.734375 176.925781 164.601562 176.554688 165.171875 175.921875 C 166.078125 174.910156 166.40625 173.582031 166.15625 172.082031 C 165.84375 170.203125 164.5625 167.996094 162.449219 165.996094 C 157.800781 161.582031 149.113281 158.070312 139.097656 161.292969 C 132.570312 163.394531 125.441406 168.378906 118.550781 177.980469 Z M 123.34375 175.5 C 128.917969 168.851562 134.546875 165.148438 139.796875 163.460938 C 148.835938 160.550781 156.6875 163.664062 160.882812 167.644531 C 162.308594 168.992188 163.304688 170.429688 163.738281 171.757812 C 164.078125 172.789062 164.074219 173.738281 163.476562 174.402344 C 163.167969 174.75 162.601562 174.742188 161.867188 174.714844 C 160.757812 174.671875 159.351562 174.410156 157.683594 174.070312 C 150.152344 172.53125 137.652344 169.4375 123.347656 175.496094 Z M 123.34375 175.5 " fill-opacity="1" fill-rule="evenodd"/><path fill="#204938" d="M 137.957031 225.082031 C 137.957031 225.082031 133.421875 197.484375 120.417969 178.011719 C 114.140625 168.609375 107.503906 159.710938 102.039062 156.0625 C 99.347656 154.261719 96.871094 153.707031 94.796875 154.570312 C 92.171875 155.664062 90.867188 158.433594 90.542969 161.863281 C 90.109375 166.457031 91.375 172.242188 92.558594 175.761719 C 97.617188 190.753906 119.785156 217.992188 132.773438 226.230469 C 133.304688 226.566406 134.007812 226.40625 134.34375 225.878906 C 134.679688 225.347656 134.523438 224.644531 133.992188 224.308594 C 121.308594 216.261719 99.652344 189.671875 94.714844 175.03125 C 93.609375 171.753906 92.40625 166.359375 92.808594 162.078125 C 93.042969 159.589844 93.769531 157.464844 95.671875 156.667969 C 96.597656 156.285156 97.632812 156.402344 98.757812 156.851562 C 100.089844 157.390625 101.519531 158.382812 103.027344 159.703125 C 107.832031 163.921875 113.292969 171.429688 118.527344 179.273438 C 131.28125 198.375 135.714844 225.453125 135.714844 225.453125 C 135.816406 226.070312 136.398438 226.492188 137.019531 226.390625 C 137.636719 226.289062 138.058594 225.703125 137.957031 225.082031 Z M 137.957031 225.082031 " fill-opacity="1" fill-rule="evenodd"/><path fill="#204938" d="M 133.382812 226.40625 C 133.382812 226.40625 132.25 225.199219 132.25 225.199219 C 132.25 225.199219 132.21875 225.59375 132.21875 225.59375 C 132.21875 225.59375 133.355469 226.824219 133.355469 226.824219 C 133.046875 226.824219 132.753906 226.699219 132.539062 226.476562 C 132.324219 226.257812 132.207031 225.957031 132.21875 225.648438 C 132.121094 228.777344 134.460938 233.867188 137.046875 236.710938 C 138.316406 238.105469 139.683594 238.945312 140.835938 239.027344 C 143.425781 239.210938 144.867188 237.425781 145.292969 234.644531 C 145.808594 231.292969 144.78125 226.410156 143.367188 223.429688 C 142.945312 222.539062 142.390625 222.203125 141.871094 222.09375 C 141.355469 221.984375 140.78125 222.105469 140.195312 222.476562 C 139.71875 222.777344 139.207031 223.277344 138.683594 223.710938 C 138.414062 223.933594 138.179688 224.195312 137.910156 224.210938 C 137.105469 224.25 136.308594 223.996094 135.644531 223.804688 C 134.992188 223.617188 134.421875 223.488281 133.996094 223.5 C 133.511719 223.515625 133.125 223.675781 132.828125 223.941406 C 132.554688 224.195312 132.320312 224.5625 132.253906 225.136719 Z M 141.347656 224.472656 C 142.171875 226.242188 142.84375 228.730469 143.074219 231.066406 C 143.238281 232.746094 143.1875 234.34375 142.742188 235.5 C 142.433594 236.289062 141.898438 236.820312 140.996094 236.757812 C 140.675781 236.734375 140.339844 236.558594 139.984375 236.3125 C 139.25 235.804688 138.5 234.992188 137.792969 234.023438 C 136.003906 231.582031 134.484375 228.167969 134.488281 225.863281 C 134.691406 225.910156 134.933594 225.96875 135.128906 226.023438 C 135.988281 226.269531 137.003906 226.53125 138.023438 226.480469 C 138.871094 226.4375 139.804688 225.761719 140.640625 225.023438 C 140.847656 224.839844 141.144531 224.621094 141.347656 224.472656 Z M 134.238281 226.402344 C 134.03125 226.65625 133.710938 226.824219 133.355469 226.824219 C 133.355469 226.824219 133.902344 226.789062 134.238281 226.402344 Z M 134.253906 226.378906 L 134.242188 226.390625 Z M 134.476562 225.863281 L 134.46875 225.910156 Z M 134.476562 225.863281 " fill-opacity="1" fill-rule="evenodd"/><path fill="#204938" d="M 107.992188 161.625 C 107.535156 150.578125 109.578125 143.542969 111.980469 140.722656 C 114.003906 138.351562 116.480469 138.101562 119.082031 139.074219 C 121.019531 139.796875 123.011719 141.152344 124.976562 142.835938 C 132.648438 149.429688 139.753906 161.050781 140.585938 162.394531 C 140.914062 162.929688 141.617188 163.09375 142.152344 162.765625 C 142.683594 162.433594 142.851562 161.730469 142.519531 161.199219 C 141.515625 159.578125 131.65625 143.558594 122.378906 138.148438 C 117.945312 135.558594 113.636719 135.277344 110.25 139.25 C 107.660156 142.285156 105.226562 149.816406 105.71875 161.714844 C 105.746094 162.34375 106.277344 162.832031 106.902344 162.804688 C 107.53125 162.78125 108.015625 162.25 107.992188 161.625 Z M 107.992188 161.625 " fill-opacity="1" fill-rule="evenodd"/><path fill="#204938" d="M 137.496094 154.863281 C 141.414062 148.367188 149.730469 143.269531 156.222656 142.25 C 160.042969 141.648438 163.246094 142.445312 164.003906 145.746094 C 164.367188 147.335938 163.566406 148.929688 162.414062 150.75 C 160.367188 153.984375 157.132812 157.761719 155.152344 162.769531 C 154.917969 163.355469 155.203125 164.015625 155.789062 164.246094 C 156.371094 164.476562 157.035156 164.191406 157.265625 163.609375 C 159.1875 158.753906 162.347656 155.105469 164.335938 151.964844 C 165.871094 149.539062 166.707031 147.355469 166.21875 145.238281 C 165.191406 140.746094 161.070312 139.1875 155.867188 140.003906 C 148.824219 141.113281 139.800781 146.640625 135.546875 153.691406 C 135.226562 154.226562 135.398438 154.925781 135.9375 155.25 C 136.472656 155.574219 137.175781 155.402344 137.496094 154.863281 Z M 137.496094 154.863281 " fill-opacity="1" fill-rule="evenodd"/><path fill="#204938" d="M 150.628906 173.910156 C 143.851562 184.8125 140.617188 213.183594 140.070312 223.175781 C 140.039062 223.804688 140.519531 224.339844 141.144531 224.375 C 141.773438 224.410156 142.308594 223.929688 142.34375 223.300781 C 142.878906 213.53125 145.9375 185.769531 152.5625 175.109375 C 152.894531 174.574219 152.730469 173.875 152.195312 173.542969 C 151.664062 173.210938 150.960938 173.375 150.628906 173.910156 Z M 150.628906 173.910156 " fill-opacity="1" fill-rule="evenodd"/><path fill="#204938" d="M 141.097656 238.0625 C 141.097656 238.0625 143.765625 246.605469 141.734375 259.867188 C 141.636719 260.488281 142.0625 261.070312 142.683594 261.164062 C 143.304688 261.261719 143.886719 260.835938 143.980469 260.214844 C 146.109375 246.324219 143.265625 237.378906 143.265625 237.378906 C 143.078125 236.777344 142.441406 236.445312 141.839844 236.636719 C 141.242188 236.824219 140.910156 237.464844 141.097656 238.0625 Z M 141.097656 238.0625 " fill-opacity="1" fill-rule="evenodd"/><path fill="#204938" d="M 73.746094 300.476562 C 73.8125 300.714844 73.957031 300.925781 74.152344 301.074219 C 74.152344 301.074219 84.605469 309.285156 109.261719 295.957031 C 130.464844 284.503906 134.304688 266.089844 134.304688 266.089844 C 134.367188 265.789062 134.304688 265.476562 134.136719 265.21875 C 133.960938 264.964844 133.695312 264.789062 133.390625 264.738281 C 133.390625 264.738281 117.894531 262.003906 103.535156 267.546875 C 94.472656 271.042969 83.414062 278.824219 79.089844 285.664062 C 72.402344 296.246094 73.746094 300.476562 73.746094 300.476562 Z M 75.898438 299.496094 C 75.851562 298.363281 76.167969 294.550781 81.015625 286.878906 C 85.136719 280.359375 95.714844 273.003906 104.355469 269.667969 C 115.765625 265.265625 127.921875 266.308594 131.761719 266.796875 C 130.519531 270.890625 125.207031 284.757812 108.179688 293.957031 C 87.769531 304.988281 77.863281 300.617188 75.898438 299.496094 Z M 75.898438 299.496094 " fill-opacity="1" fill-rule="evenodd"/><path fill="#204938" d="M 75.695312 300.917969 C 75.695312 300.917969 81.609375 294.160156 88.925781 290.78125 C 89.5 290.515625 89.75 289.839844 89.484375 289.269531 C 89.222656 288.699219 88.542969 288.449219 87.976562 288.710938 C 80.238281 292.285156 73.984375 299.421875 73.984375 299.421875 C 73.574219 299.894531 73.621094 300.613281 74.09375 301.027344 C 74.566406 301.441406 75.285156 301.390625 75.695312 300.917969 Z M 75.695312 300.917969 " fill-opacity="1" fill-rule="evenodd"/><path fill="#204938" d="M 78.308594 306.25 C 78.050781 306.46875 77.902344 306.789062 77.902344 307.125 C 77.902344 307.125 77.921875 320.269531 91.273438 326.960938 C 119.527344 341.121094 143.769531 330.902344 143.769531 330.902344 C 144.054688 330.78125 144.28125 330.546875 144.390625 330.253906 C 144.503906 329.960938 144.488281 329.632812 144.347656 329.351562 C 144.347656 329.351562 133.53125 307.183594 106.179688 302.09375 C 87.289062 298.578125 78.308594 306.25 78.308594 306.25 Z M 80.210938 307.671875 C 82.136719 306.34375 90.480469 301.484375 105.761719 304.332031 C 128.316406 308.527344 139.140625 324.824219 141.699219 329.242188 C 136.621094 330.984375 115.914062 336.765625 92.289062 324.925781 C 81.832031 319.683594 80.402344 310.078125 80.207031 307.671875 Z M 80.210938 307.671875 " fill-opacity="1" fill-rule="evenodd"/><path fill="#204938" d="M 79.058594 308.257812 C 79.058594 308.257812 88.40625 308.117188 97.613281 311.519531 C 98.203125 311.734375 98.859375 311.433594 99.074219 310.84375 C 99.292969 310.257812 98.992188 309.601562 98.402344 309.382812 C 88.785156 305.832031 79.023438 305.984375 79.023438 305.984375 C 78.394531 305.992188 77.894531 306.511719 77.902344 307.140625 C 77.914062 307.765625 78.429688 308.265625 79.058594 308.257812 Z M 79.058594 308.257812 " fill-opacity="1" fill-rule="evenodd"/><path fill="#204938" d="M 59.28125 228.789062 C 58.773438 228.429688 58.074219 228.542969 57.707031 229.042969 C 57.707031 229.042969 45.863281 245.003906 49.789062 270.183594 C 54.007812 297.222656 70.164062 298.882812 70.164062 298.882812 C 70.449219 298.917969 70.738281 298.835938 70.972656 298.664062 C 70.972656 298.664062 82.351562 290.261719 81.113281 272.136719 C 79.109375 242.800781 59.28125 228.789062 59.28125 228.789062 Z M 58.886719 231.367188 C 62.714844 234.5 77.175781 247.886719 78.84375 272.289062 C 79.859375 287.136719 71.8125 294.957031 69.980469 296.539062 C 67.519531 295.992188 55.527344 292.195312 52.039062 269.835938 C 48.828125 249.253906 56.546875 235.089844 58.886719 231.367188 Z M 58.886719 231.367188 " fill-opacity="1" fill-rule="evenodd"/><path fill="#204938" d="M 71.425781 297.792969 C 71.425781 297.792969 72.085938 279.433594 65.589844 265.992188 C 65.316406 265.425781 64.636719 265.191406 64.070312 265.464844 C 63.507812 265.738281 63.269531 266.417969 63.542969 266.984375 C 69.816406 279.964844 69.15625 297.710938 69.15625 297.710938 C 69.132812 298.339844 69.621094 298.867188 70.25 298.890625 C 70.875 298.914062 71.40625 298.421875 71.425781 297.792969 Z M 71.425781 297.792969 " fill-opacity="1" fill-rule="evenodd"/><path fill="#204938" d="M 66.296875 303.105469 C 66.699219 302.835938 66.886719 302.34375 66.769531 301.875 C 66.769531 301.875 62.964844 286.671875 44.828125 277.363281 C 26.210938 267.8125 0.839844 275.082031 0.839844 275.082031 C 0.511719 275.175781 0.246094 275.410156 0.109375 275.722656 C -0.0234375 276.035156 -0.0117188 276.390625 0.140625 276.691406 C 0.140625 276.691406 10.117188 296.3125 32.941406 303.894531 C 54.519531 311.0625 66.296875 303.105469 66.296875 303.105469 Z M 64.3125 301.621094 C 61.546875 303.058594 50.945312 307.480469 33.660156 301.738281 C 15.15625 295.589844 5.441406 281.214844 2.871094 276.90625 C 8.304688 275.582031 28.4375 271.511719 43.789062 279.390625 C 58.453125 286.914062 63.242188 298.472656 64.3125 301.621094 Z M 64.3125 301.621094 " fill-opacity="1" fill-rule="evenodd"/><path fill="#204938" d="M 65.523438 301.027344 C 65.523438 301.027344 59.246094 301.679688 51.824219 291.789062 C 51.449219 291.285156 50.734375 291.183594 50.234375 291.558594 C 49.730469 291.9375 49.628906 292.648438 50.003906 293.152344 C 58.4375 304.394531 65.8125 303.285156 65.8125 303.285156 C 66.433594 303.203125 66.875 302.632812 66.796875 302.011719 C 66.714844 301.390625 66.144531 300.949219 65.523438 301.027344 Z M 65.523438 301.027344 " fill-opacity="1" fill-rule="evenodd"/><path fill="#204938" d="M 67.683594 307.429688 C 67.679688 306.925781 67.339844 306.484375 66.851562 306.347656 C 66.851562 306.347656 47.910156 301.019531 31.613281 317.429688 C 17.757812 331.378906 14.5625 351.296875 14.5625 351.296875 C 14.515625 351.605469 14.59375 351.917969 14.78125 352.164062 C 14.96875 352.414062 15.25 352.574219 15.558594 352.609375 C 15.558594 352.609375 38.230469 355.210938 57.910156 334.199219 C 67.808594 323.632812 67.683594 307.429688 67.683594 307.429688 Z M 65.390625 308.34375 C 65.257812 311.75 64.214844 324.140625 56.25 332.644531 C 40.101562 349.882812 21.882812 350.570312 17.046875 350.417969 C 17.976562 345.96875 21.902344 330.433594 33.226562 319.03125 C 46.527344 305.640625 61.679688 307.609375 65.390625 308.34375 Z M 65.390625 308.34375 " fill-opacity="1" fill-rule="evenodd"/><path fill="#204938" d="M 65.59375 306.820312 C 65.59375 306.820312 58.113281 318.371094 45.5 322.433594 C 44.90625 322.625 44.574219 323.265625 44.769531 323.863281 C 44.960938 324.460938 45.601562 324.789062 46.199219 324.597656 C 59.570312 320.292969 67.503906 308.058594 67.503906 308.058594 C 67.84375 307.53125 67.691406 306.828125 67.167969 306.484375 C 66.640625 306.144531 65.933594 306.296875 65.59375 306.820312 Z M 65.59375 306.820312 " fill-opacity="1" fill-rule="evenodd"/><path fill="#204938" d="M 73.703125 310.714844 C 73.542969 310.699219 73.382812 310.714844 73.230469 310.765625 C 73.230469 310.765625 60.664062 314.78125 62.109375 339.433594 C 63.40625 361.542969 81.371094 379.800781 81.371094 379.800781 C 81.625 380.054688 81.988281 380.175781 82.347656 380.125 C 82.707031 380.070312 83.015625 379.851562 83.1875 379.53125 C 83.1875 379.53125 95.613281 355.960938 91.660156 337.367188 C 86.207031 311.714844 73.703125 310.714844 73.703125 310.714844 Z M 73.726562 313.023438 C 75.363281 313.375 84.863281 316.339844 89.433594 337.84375 C 92.671875 353.070312 84.441406 371.753906 81.898438 377.023438 C 78.070312 372.75 65.441406 357.367188 64.378906 339.300781 C 63.175781 318.765625 72.148438 313.742188 73.722656 313.023438 Z M 73.726562 313.023438 " fill-opacity="1" fill-rule="evenodd"/><path fill="#204938" d="M 77.320312 335.945312 C 77.320312 335.945312 73.863281 324.90625 74.730469 311.921875 C 74.769531 311.292969 74.296875 310.753906 73.667969 310.710938 C 73.042969 310.667969 72.5 311.140625 72.457031 311.769531 C 71.5625 325.207031 75.152344 336.625 75.152344 336.625 C 75.339844 337.222656 75.976562 337.558594 76.578125 337.371094 C 77.175781 337.183594 77.511719 336.542969 77.320312 335.945312 Z M 77.320312 335.945312 " fill-opacity="1" fill-rule="evenodd"/><path fill="#204938" d="M 237.921875 141.363281 C 237.921875 141.363281 221.660156 163.8125 204.679688 180.136719 C 187.5625 196.597656 135.832031 250.078125 121.539062 308.953125 C 121.390625 309.558594 121.765625 310.175781 122.375 310.324219 C 122.988281 310.472656 123.601562 310.097656 123.75 309.488281 C 137.921875 251.101562 189.28125 198.101562 206.257812 181.777344 C 223.371094 165.324219 239.765625 142.699219 239.765625 142.699219 C 240.136719 142.191406 240.019531 141.476562 239.511719 141.109375 C 239.003906 140.742188 238.292969 140.855469 237.921875 141.363281 Z M 237.921875 141.363281 " fill-opacity="1" fill-rule="evenodd"/><path fill="#204938" d="M 234.546875 299.523438 C 235.535156 297.699219 235.738281 296.046875 235.277344 294.75 C 234.941406 293.796875 234.261719 292.996094 233.1875 292.429688 C 231.863281 291.726562 229.851562 291.378906 227.109375 291.621094 C 223.339844 291.953125 218.0625 293.382812 211.191406 296.375 C 201.925781 300.40625 186.292969 310.605469 178.589844 318.851562 C 172.652344 325.210938 170.203125 330.1875 169.609375 333.683594 C 169.15625 336.355469 169.753906 338.273438 170.726562 339.441406 C 171.910156 340.867188 174.039062 342.273438 177.734375 341.953125 C 181.03125 341.667969 185.722656 339.9375 192.285156 335.261719 C 199.296875 330.261719 215.453125 317.910156 225.660156 308.835938 C 230.164062 304.835938 233.511719 301.425781 234.546875 299.523438 Z M 232.546875 298.4375 C 231.578125 300.226562 228.378906 303.375 224.152344 307.136719 C 214 316.160156 197.933594 328.4375 190.960938 333.40625 C 184.890625 337.738281 180.589844 339.421875 177.539062 339.6875 C 174.886719 339.917969 173.324219 339.011719 172.476562 337.988281 C 171.816406 337.195312 171.546875 335.875 171.855469 334.0625 C 172.402344 330.832031 174.761719 326.285156 180.253906 320.40625 C 187.777344 312.351562 203.050781 302.398438 212.101562 298.460938 C 221.125 294.53125 227.207031 293.347656 230.648438 293.964844 C 231.9375 294.195312 232.789062 294.652344 233.105469 295.429688 C 233.4375 296.242188 233.179688 297.269531 232.546875 298.4375 Z M 232.546875 298.4375 " fill-opacity="1" fill-rule="evenodd"/><path fill="#204938" d="M 176.625 323.96875 C 176.625 323.96875 175.492188 322.699219 175.492188 322.699219 C 175.492188 322.699219 175.492188 322.726562 175.488281 322.765625 C 175.472656 322.949219 175.410156 323.933594 176 325.175781 C 176.578125 326.390625 177.816406 327.925781 180.578125 329.050781 C 183.863281 330.386719 189.507812 331.179688 199.214844 329.964844 C 199.835938 329.886719 200.277344 329.316406 200.203125 328.691406 C 200.125 328.070312 199.554688 327.628906 198.929688 327.707031 C 189.820312 328.847656 184.519531 328.195312 181.4375 326.941406 C 177.621094 325.390625 177.753906 322.96875 177.753906 322.96875 C 177.828125 322.34375 177.382812 321.777344 176.757812 321.703125 C 176.136719 321.628906 175.570312 322.074219 175.496094 322.695312 Z M 176.625 323.96875 " fill-opacity="1" fill-rule="evenodd"/><path fill="#204938" d="M 171.851562 339.101562 C 171.851562 339.101562 144.914062 376.136719 134.222656 416.0625 C 134.0625 416.667969 134.421875 417.292969 135.027344 417.453125 C 135.636719 417.617188 136.257812 417.257812 136.421875 416.648438 C 147.007812 377.109375 173.691406 340.441406 173.691406 340.441406 C 174.058594 339.933594 173.945312 339.222656 173.441406 338.851562 C 172.933594 338.484375 172.21875 338.59375 171.851562 339.101562 Z M 171.851562 339.101562 " fill-opacity="1" fill-rule="evenodd"/><path fill="#204938" d="M 85.84375 326.109375 C 85.84375 326.109375 100.332031 345.386719 111.527344 377.722656 C 111.734375 378.316406 112.382812 378.632812 112.976562 378.425781 C 113.570312 378.222656 113.882812 377.574219 113.675781 376.980469 C 102.347656 344.246094 87.664062 324.742188 87.664062 324.742188 C 87.285156 324.242188 86.574219 324.140625 86.070312 324.519531 C 85.566406 324.894531 85.46875 325.609375 85.84375 326.109375 Z M 85.84375 326.109375 " fill-opacity="1" fill-rule="evenodd"/><path fill="#204938" d="M 63.347656 507.558594 C 63.273438 507.039062 62.851562 506.640625 62.328125 506.59375 C 61.808594 506.542969 61.320312 506.859375 61.148438 507.355469 C 61.148438 507.355469 44.777344 554.699219 89.625 593.6875 C 110.109375 611.496094 120.402344 637.769531 125.417969 662.863281 C 132.972656 700.667969 128.53125 735.855469 128.53125 735.855469 C 128.460938 736.429688 128.832031 736.96875 129.394531 737.101562 C 129.960938 737.238281 130.535156 736.929688 130.730469 736.382812 C 130.730469 736.382812 141.523438 706.359375 135.765625 665.292969 C 125.960938 595.410156 115.917969 594.605469 88.207031 564.308594 C 68.535156 542.800781 63.347656 507.558594 63.347656 507.558594 Z M 62.054688 512.957031 C 64.320312 523.648438 71.039062 548.910156 86.527344 565.84375 C 113.90625 595.773438 123.828125 596.570312 133.511719 665.609375 C 136.996094 690.445312 134.34375 711.183594 131.777344 723.488281 C 132.453125 709.78125 132.488281 686.628906 127.648438 662.417969 C 122.539062 636.847656 111.988281 610.117188 91.117188 591.972656 C 56.039062 561.472656 59.402344 525.75 62.054688 512.957031 Z M 62.054688 512.957031 " fill-opacity="1" fill-rule="evenodd"/><path fill="#204938" d="M 107.589844 531.585938 C 107.648438 532.03125 107.964844 532.398438 108.394531 532.527344 C 108.824219 532.652344 109.289062 532.515625 109.582031 532.171875 C 133.996094 503.59375 139.042969 477.878906 141.390625 457.710938 C 142.925781 444.542969 143.238281 433.785156 147.261719 426.222656 C 154.902344 411.878906 158.019531 392.394531 158.019531 392.394531 C 158.09375 391.9375 157.882812 391.484375 157.492188 391.242188 C 157.101562 391.003906 156.601562 391.023438 156.226562 391.292969 C 156.226562 391.292969 130.925781 409.59375 116.710938 451.917969 C 102.539062 494.113281 107.589844 531.585938 107.589844 531.585938 Z M 109.566406 528.652344 C 108.75 519.511719 107.082031 487.730469 118.867188 452.644531 C 130.214844 418.851562 148.726562 400.644531 155.21875 395.039062 C 154.042969 400.964844 150.925781 414.507812 145.253906 425.152344 C 141.125 432.914062 140.707031 443.9375 139.132812 457.445312 C 136.878906 476.804688 132.105469 501.359375 109.566406 528.652344 Z M 109.566406 528.652344 " fill-opacity="1" fill-rule="evenodd"/><path fill="#204938" d="M 84.261719 405.128906 C 83.554688 405.578125 82.492188 407.046875 81.394531 409.269531 C 79.113281 413.898438 76.3125 421.96875 74.960938 429.4375 C 74.175781 433.789062 73.890625 437.941406 74.445312 441.125 C 74.855469 443.480469 75.738281 445.335938 77.121094 446.484375 C 78.460938 447.597656 80.332031 447.257812 82.265625 445.367188 C 85.597656 442.109375 89.589844 434.050781 91.53125 426.878906 C 92.921875 421.75 93.433594 413.296875 91.910156 408.457031 C 91.175781 406.128906 89.921875 404.59375 88.300781 404.191406 C 87.195312 403.914062 85.847656 404.125 84.261719 405.128906 Z M 85.484375 407.050781 C 86.382812 406.476562 87.121094 406.242188 87.75 406.398438 C 88.734375 406.644531 89.296875 407.726562 89.742188 409.140625 C 91.160156 413.644531 90.628906 421.511719 89.335938 426.285156 C 87.507812 433.042969 83.816406 440.667969 80.675781 443.738281 C 80.226562 444.179688 79.796875 444.515625 79.386719 444.714844 C 79.082031 444.855469 78.804688 444.925781 78.574219 444.734375 C 77.554688 443.886719 76.988281 442.476562 76.6875 440.734375 C 76.167969 437.769531 76.46875 433.898438 77.199219 429.839844 C 78.507812 422.59375 81.222656 414.765625 83.4375 410.273438 C 83.980469 409.171875 84.488281 408.28125 84.9375 407.664062 C 85.144531 407.375 85.320312 407.15625 85.484375 407.050781 Z M 85.484375 407.050781 " fill-opacity="1" fill-rule="evenodd"/><path fill="#204938" d="M 76.902344 431.132812 C 76.902344 431.132812 85.539062 416.4375 92.011719 412.527344 C 92.550781 412.203125 92.722656 411.503906 92.398438 410.964844 C 92.074219 410.429688 91.375 410.253906 90.835938 410.578125 C 84.066406 414.671875 74.945312 429.976562 74.945312 429.976562 C 74.625 430.515625 74.804688 431.214844 75.34375 431.535156 C 75.882812 431.855469 76.582031 431.675781 76.902344 431.132812 Z M 76.902344 431.132812 " fill-opacity="1" fill-rule="evenodd"/><path fill="#204938" d="M 77.792969 478.015625 C 78.433594 478.21875 78.984375 478.160156 79.457031 477.9375 C 79.886719 477.734375 80.269531 477.371094 80.5625 476.824219 C 80.9375 476.121094 81.171875 475.015625 81.230469 473.621094 C 81.472656 467.976562 79.015625 456.996094 76.53125 451.847656 C 74.046875 446.703125 68.046875 436.226562 63.183594 432.703125 C 61.644531 431.585938 60.164062 431.132812 58.898438 431.414062 C 57.976562 431.617188 57.117188 432.1875 56.402344 433.277344 C 55.707031 434.34375 54.871094 438.113281 54.910156 443.121094 C 55 454.402344 59.273438 472.085938 77.792969 478.015625 Z M 78.492188 475.847656 L 78.484375 475.847656 C 61.148438 470.300781 57.269531 453.664062 57.183594 443.101562 C 57.164062 440.390625 57.394531 438.074219 57.71875 436.449219 C 57.90625 435.523438 58.09375 434.847656 58.308594 434.519531 C 58.628906 434.03125 58.972656 433.726562 59.386719 433.636719 C 60.128906 433.46875 60.945312 433.886719 61.847656 434.542969 C 66.480469 437.902344 72.113281 447.9375 74.480469 452.835938 C 76.84375 457.726562 79.1875 468.160156 78.957031 473.527344 C 78.941406 473.953125 78.90625 474.34375 78.851562 474.691406 C 78.8125 474.945312 78.765625 475.175781 78.703125 475.378906 C 78.664062 475.511719 78.617188 475.628906 78.566406 475.734375 C 78.546875 475.769531 78.515625 475.816406 78.492188 475.847656 Z M 78.492188 475.847656 " fill-opacity="1" fill-rule="evenodd"/><path fill="#204938" d="M 80.777344 467.410156 C 80.777344 467.410156 75.378906 452.429688 56.570312 443.417969 C 56.003906 443.144531 55.324219 443.382812 55.050781 443.949219 C 54.78125 444.515625 55.019531 445.195312 55.585938 445.46875 C 73.449219 454.027344 78.636719 468.1875 78.636719 468.1875 C 78.851562 468.777344 79.507812 469.085938 80.097656 468.871094 C 80.6875 468.65625 80.992188 468 80.777344 467.410156 Z M 80.777344 467.410156 " fill-opacity="1" fill-rule="evenodd"/><path fill="#204938" d="M 76.347656 451.488281 L 76.9375 442.15625 C 77.003906 441.53125 76.550781 440.96875 75.925781 440.902344 C 75.300781 440.835938 74.738281 441.289062 74.671875 441.910156 C 74.671875 441.910156 73.777344 450.667969 74.121094 452.15625 C 74.261719 452.757812 74.617188 453.023438 74.84375 453.128906 C 75.160156 453.28125 75.511719 453.304688 75.886719 453.121094 C 76.453125 452.847656 76.6875 452.164062 76.410156 451.601562 C 76.390625 451.5625 76.371094 451.523438 76.347656 451.488281 Z M 75.273438 450.96875 C 75.167969 450.976562 75.054688 451.003906 74.945312 451.054688 C 75.050781 451.007812 75.160156 450.980469 75.273438 450.96875 Z M 75.273438 450.96875 " fill-opacity="1" fill-rule="evenodd"/><path fill="#204938" d="M 77.945312 476.972656 C 77.945312 476.972656 82.289062 517.992188 111.152344 561.28125 C 139.632812 604.007812 133.503906 665.335938 133.503906 665.335938 C 133.445312 665.960938 133.898438 666.519531 134.523438 666.582031 C 135.148438 666.644531 135.707031 666.1875 135.769531 665.5625 C 135.769531 665.5625 141.9375 603.359375 113.042969 560.019531 C 84.527344 517.25 80.203125 476.730469 80.203125 476.730469 C 80.140625 476.105469 79.578125 475.652344 78.953125 475.71875 C 78.332031 475.785156 77.878906 476.347656 77.945312 476.972656 Z M 77.945312 476.972656 " fill-opacity="1" fill-rule="evenodd"/><path fill="#204938" d="M 107.582031 531.339844 C 107.582031 531.339844 106.261719 547.042969 111.019531 561.019531 C 111.222656 561.613281 111.871094 561.933594 112.464844 561.730469 C 113.058594 561.527344 113.375 560.878906 113.171875 560.285156 C 108.5625 546.746094 109.847656 531.53125 109.847656 531.53125 C 109.902344 530.90625 109.4375 530.355469 108.8125 530.300781 C 108.1875 530.25 107.636719 530.714844 107.582031 531.339844 Z M 107.582031 531.339844 " fill-opacity="1" fill-rule="evenodd"/><path fill="#204938" d="M 116.023438 332.957031 C 116.023438 332.957031 105.398438 410.691406 106.714844 513.535156 C 106.722656 514.164062 107.238281 514.667969 107.867188 514.660156 C 108.496094 514.652344 109 514.132812 108.992188 513.507812 C 107.675781 410.855469 118.277344 333.265625 118.277344 333.265625 C 118.363281 332.644531 117.929688 332.070312 117.304688 331.984375 C 116.683594 331.898438 116.109375 332.335938 116.023438 332.957031 Z M 116.023438 332.957031 " fill-opacity="1" fill-rule="evenodd"/><path fill="#204938" d="M 243.738281 198.671875 L 730.054688 198.671875 C 730.054688 198.671875 730.054688 789.054688 730.054688 789.054688 C 730.054688 789.683594 730.558594 790.195312 731.191406 790.195312 C 731.820312 790.195312 732.328125 789.683594 732.328125 789.054688 L 732.328125 197.535156 C 732.328125 196.90625 731.820312 196.394531 731.191406 196.394531 L 243.738281 196.394531 C 243.105469 196.394531 242.597656 196.90625 242.597656 197.535156 C 242.597656 198.160156 243.105469 198.671875 243.738281 198.671875 Z M 243.738281 198.671875 " fill-opacity="1" fill-rule="evenodd"/><path fill="#204938" d="M 542.898438 1305.734375 C 542.101562 1307.699219 539.941406 1313.664062 539.703125 1317.507812 C 539.628906 1318.671875 539.742188 1319.667969 540.039062 1320.378906 C 540.324219 1321.066406 540.777344 1321.542969 541.371094 1321.804688 C 545.203125 1323.492188 548.28125 1321.425781 550.632812 1319.542969 C 554.488281 1316.457031 560.664062 1308.042969 563.714844 1301.011719 C 564.921875 1298.230469 569.660156 1286.179688 569.351562 1278.921875 C 569.195312 1275.203125 567.734375 1272.667969 564.53125 1272.371094 C 561.828125 1272.121094 559.753906 1273.1875 558.113281 1274.65625 C 556.640625 1275.980469 555.542969 1277.632812 554.640625 1278.769531 C 550.484375 1284.011719 544.027344 1302.964844 542.898438 1305.734375 Z M 545.007812 1306.59375 C 546.109375 1303.878906 552.359375 1285.3125 556.421875 1280.183594 C 557.261719 1279.128906 558.265625 1277.578125 559.632812 1276.351562 C 560.835938 1275.273438 562.339844 1274.453125 564.320312 1274.636719 C 566.359375 1274.824219 566.976562 1276.652344 567.078125 1279.019531 C 567.375 1285.953125 562.777344 1297.449219 561.625 1300.105469 C 558.722656 1306.800781 552.882812 1314.832031 549.214844 1317.761719 C 547.4375 1319.1875 545.183594 1321 542.289062 1319.722656 C 542.15625 1319.664062 542.125 1319.5 542.074219 1319.320312 C 541.949219 1318.871094 541.933594 1318.296875 541.972656 1317.648438 C 542.195312 1314.039062 544.257812 1308.4375 545.007812 1306.59375 Z M 545.007812 1306.59375 " fill-opacity="1" fill-rule="evenodd"/><path fill="#204938" d="M 569.117188 1281.683594 C 571.683594 1277.914062 573.160156 1273.414062 573.457031 1268.871094 C 573.53125 1267.742188 573.515625 1266.519531 573.226562 1265.542969 C 572.972656 1264.6875 572.519531 1264.003906 571.84375 1263.574219 C 571.15625 1263.136719 570.195312 1262.933594 568.855469 1263.265625 C 563.035156 1264.714844 560.273438 1270.125 557.820312 1275.027344 C 557.539062 1275.589844 557.765625 1276.273438 558.328125 1276.554688 C 558.890625 1276.835938 559.574219 1276.609375 559.855469 1276.046875 C 560.976562 1273.804688 562.136719 1271.421875 563.691406 1269.433594 C 565.136719 1267.585938 566.925781 1266.089844 569.402344 1265.472656 C 569.921875 1265.34375 570.308594 1265.320312 570.589844 1265.472656 C 571.007812 1265.703125 571.09375 1266.234375 571.164062 1266.792969 C 571.246094 1267.410156 571.230469 1268.085938 571.1875 1268.722656 C 570.917969 1272.863281 569.574219 1276.96875 567.238281 1280.402344 C 566.886719 1280.921875 567.019531 1281.628906 567.539062 1281.984375 C 568.058594 1282.335938 568.765625 1282.203125 569.117188 1281.683594 Z M 569.117188 1281.683594 " fill-opacity="1" fill-rule="evenodd"/><path fill="#204938" d="M 614.351562 1310.890625 C 614.519531 1310.902344 614.691406 1310.882812 614.851562 1310.820312 C 617.664062 1309.761719 619.015625 1307.613281 619.722656 1305.082031 C 620.347656 1302.859375 620.445312 1300.324219 620.785156 1298.15625 C 621.824219 1291.582031 623.914062 1265.496094 623.011719 1259.132812 C 622.609375 1256.289062 621.621094 1252.371094 619.601562 1249.921875 C 618.082031 1248.082031 616.015625 1247.003906 613.242188 1247.511719 C 611.164062 1247.890625 609.472656 1249.277344 608.195312 1251.121094 C 606.433594 1253.65625 605.457031 1257.050781 605.183594 1259.34375 C 604.433594 1265.578125 606.929688 1290.230469 607.449219 1296.476562 C 607.640625 1298.753906 607.664062 1303.085938 608.921875 1306.300781 C 609.894531 1308.796875 611.578125 1310.648438 614.351562 1310.890625 Z M 614.292969 1308.59375 C 612.613281 1308.335938 611.65625 1307.050781 611.039062 1305.472656 C 609.863281 1302.46875 609.894531 1298.417969 609.714844 1296.289062 C 609.203125 1290.117188 606.699219 1265.773438 607.441406 1259.617188 C 607.683594 1257.609375 608.523438 1254.636719 610.0625 1252.417969 C 610.984375 1251.089844 612.15625 1250.023438 613.652344 1249.746094 C 615.992188 1249.320312 617.542969 1250.648438 618.605469 1252.472656 C 619.84375 1254.585938 620.460938 1257.355469 620.757812 1259.453125 C 621.644531 1265.707031 619.558594 1291.339844 618.539062 1297.800781 C 618.210938 1299.886719 618.132812 1302.328125 617.53125 1304.46875 C 617.039062 1306.234375 616.171875 1307.789062 614.296875 1308.59375 Z M 614.292969 1308.59375 " fill-opacity="1" fill-rule="evenodd"/><path fill="#204938" d="M 619.140625 1250.046875 C 619.140625 1250.046875 619.617188 1246.410156 619.058594 1242.804688 C 618.65625 1240.203125 617.679688 1237.648438 615.789062 1236.25 C 614.160156 1235.042969 612.535156 1234.757812 611.128906 1235.039062 C 609.695312 1235.328125 608.464844 1236.222656 607.652344 1237.46875 C 605.996094 1240.003906 604.96875 1247.289062 607.3125 1253.40625 C 607.539062 1253.992188 608.195312 1254.285156 608.78125 1254.0625 C 609.367188 1253.835938 609.660156 1253.179688 609.4375 1252.59375 C 607.394531 1247.265625 608.117188 1240.921875 609.554688 1238.710938 C 610.03125 1237.984375 610.738281 1237.4375 611.578125 1237.269531 C 612.445312 1237.09375 613.429688 1237.332031 614.4375 1238.074219 C 615.882812 1239.148438 616.503906 1241.160156 616.8125 1243.15625 C 617.320312 1246.4375 616.882812 1249.75 616.882812 1249.75 C 616.800781 1250.371094 617.242188 1250.945312 617.863281 1251.027344 C 618.484375 1251.109375 619.058594 1250.667969 619.140625 1250.046875 Z M 619.140625 1250.046875 " fill-opacity="1" fill-rule="evenodd"/><path fill="#204938" d="M 613.035156 1236.121094 C 613.035156 1236.121094 613.457031 1223.140625 617.363281 1214.039062 C 617.613281 1213.464844 617.34375 1212.792969 616.769531 1212.546875 C 616.191406 1212.296875 615.523438 1212.566406 615.277344 1213.140625 C 611.21875 1222.582031 610.761719 1236.046875 610.761719 1236.046875 C 610.738281 1236.671875 611.230469 1237.199219 611.859375 1237.222656 C 612.488281 1237.242188 613.011719 1236.75 613.035156 1236.121094 Z M 613.035156 1236.121094 " fill-opacity="1" fill-rule="evenodd"/><path fill="#204938" d="M 691.394531 1228.507812 C 691.707031 1228.078125 691.675781 1227.492188 691.320312 1227.089844 C 690.96875 1226.695312 690.390625 1226.59375 689.925781 1226.851562 C 674.441406 1235.347656 660.679688 1231.816406 652.71875 1230.1875 C 650.507812 1229.738281 648.710938 1229.4375 647.402344 1229.503906 C 646.210938 1229.5625 645.34375 1229.933594 644.773438 1230.566406 C 643.867188 1231.578125 643.539062 1232.90625 643.789062 1234.40625 C 644.101562 1236.285156 645.382812 1238.492188 647.492188 1240.492188 C 652.144531 1244.90625 660.828125 1248.417969 670.84375 1245.195312 C 677.375 1243.09375 684.503906 1238.109375 691.394531 1228.507812 Z M 686.601562 1230.988281 C 681.027344 1237.636719 675.398438 1241.339844 670.148438 1243.027344 C 661.109375 1245.9375 653.257812 1242.824219 649.058594 1238.84375 C 647.636719 1237.496094 646.640625 1236.058594 646.207031 1234.730469 C 645.867188 1233.695312 645.871094 1232.75 646.464844 1232.085938 C 646.777344 1231.738281 647.34375 1231.746094 648.078125 1231.773438 C 649.1875 1231.8125 650.59375 1232.078125 652.261719 1232.417969 C 659.792969 1233.957031 672.289062 1237.050781 686.597656 1230.988281 Z M 686.601562 1230.988281 " fill-opacity="1" fill-rule="evenodd"/><path fill="#204938" d="M 671.984375 1181.40625 C 671.984375 1181.40625 676.523438 1209.003906 689.523438 1228.476562 C 695.804688 1237.878906 702.441406 1246.777344 707.902344 1250.425781 C 710.597656 1252.226562 713.074219 1252.78125 715.148438 1251.917969 C 717.773438 1250.824219 719.078125 1248.054688 719.402344 1244.625 C 719.835938 1240.03125 718.570312 1234.246094 717.382812 1230.726562 C 712.328125 1215.734375 690.160156 1188.496094 677.167969 1180.257812 C 676.640625 1179.921875 675.9375 1180.082031 675.601562 1180.609375 C 675.265625 1181.140625 675.421875 1181.84375 675.953125 1182.179688 C 688.636719 1190.226562 710.289062 1216.816406 715.226562 1231.457031 C 716.335938 1234.734375 717.539062 1240.128906 717.136719 1244.410156 C 716.902344 1246.898438 716.175781 1249.023438 714.273438 1249.820312 C 713.347656 1250.203125 712.3125 1250.085938 711.1875 1249.636719 C 709.851562 1249.097656 708.421875 1248.105469 706.917969 1246.785156 C 702.113281 1242.566406 696.652344 1235.058594 691.417969 1227.214844 C 678.664062 1208.113281 674.230469 1181.035156 674.230469 1181.035156 C 674.128906 1180.417969 673.546875 1179.996094 672.925781 1180.097656 C 672.304688 1180.199219 671.886719 1180.785156 671.984375 1181.40625 Z M 671.984375 1181.40625 " fill-opacity="1" fill-rule="evenodd"/><path fill="#204938" d="M 676.558594 1180.082031 C 676.558594 1180.082031 677.695312 1181.289062 677.695312 1181.289062 C 677.695312 1181.289062 677.722656 1180.894531 677.722656 1180.894531 C 677.722656 1180.894531 676.589844 1179.664062 676.589844 1179.664062 C 676.898438 1179.664062 677.191406 1179.789062 677.40625 1180.011719 C 677.621094 1180.230469 677.734375 1180.53125 677.726562 1180.839844 C 677.820312 1177.710938 675.484375 1172.621094 672.898438 1169.777344 C 671.628906 1168.382812 670.257812 1167.542969 669.109375 1167.460938 C 666.519531 1167.277344 665.078125 1169.0625 664.652344 1171.84375 C 664.136719 1175.195312 665.164062 1180.078125 666.574219 1183.058594 C 666.996094 1183.949219 667.554688 1184.285156 668.070312 1184.394531 C 668.589844 1184.503906 669.164062 1184.382812 669.75 1184.011719 C 670.222656 1183.710938 670.738281 1183.210938 671.261719 1182.777344 C 671.53125 1182.554688 671.765625 1182.292969 672.035156 1182.277344 C 672.839844 1182.238281 673.632812 1182.492188 674.300781 1182.683594 C 674.953125 1182.871094 675.523438 1183 675.949219 1182.988281 C 676.433594 1182.972656 676.816406 1182.8125 677.113281 1182.546875 C 677.390625 1182.292969 677.621094 1181.925781 677.691406 1181.351562 Z M 668.597656 1182.015625 C 667.773438 1180.246094 667.101562 1177.757812 666.871094 1175.421875 C 666.707031 1173.742188 666.757812 1172.144531 667.203125 1170.988281 C 667.511719 1170.195312 668.046875 1169.667969 668.949219 1169.730469 C 669.269531 1169.753906 669.605469 1169.929688 669.960938 1170.175781 C 670.695312 1170.683594 671.445312 1171.496094 672.152344 1172.464844 C 673.941406 1174.90625 675.460938 1178.320312 675.457031 1180.625 C 675.25 1180.578125 675.011719 1180.519531 674.8125 1180.464844 C 673.953125 1180.21875 672.941406 1179.957031 671.917969 1180.007812 C 671.074219 1180.046875 670.136719 1180.726562 669.300781 1181.464844 C 669.097656 1181.644531 668.800781 1181.867188 668.597656 1182.015625 Z M 675.707031 1180.085938 C 675.914062 1179.828125 676.234375 1179.664062 676.589844 1179.664062 C 676.589844 1179.664062 676.042969 1179.699219 675.707031 1180.085938 Z M 675.691406 1180.109375 L 675.703125 1180.097656 Z M 675.464844 1180.625 L 675.476562 1180.578125 L 675.472656 1180.601562 Z M 675.464844 1180.625 " fill-opacity="1" fill-rule="evenodd"/><path fill="#204938" d="M 701.953125 1244.863281 C 702.410156 1255.910156 700.367188 1262.945312 697.960938 1265.765625 C 695.941406 1268.136719 693.464844 1268.386719 690.863281 1267.414062 C 688.925781 1266.691406 686.933594 1265.335938 684.96875 1263.652344 C 677.296875 1257.058594 670.191406 1245.4375 669.359375 1244.09375 C 669.027344 1243.558594 668.328125 1243.394531 667.792969 1243.722656 C 667.261719 1244.054688 667.09375 1244.757812 667.425781 1245.289062 C 668.425781 1246.910156 678.289062 1262.929688 687.566406 1268.339844 C 692 1270.929688 696.308594 1271.210938 699.691406 1267.238281 C 702.28125 1264.203125 704.71875 1256.671875 704.226562 1244.773438 C 704.199219 1244.144531 703.667969 1243.65625 703.042969 1243.683594 C 702.414062 1243.707031 701.929688 1244.238281 701.953125 1244.863281 Z M 701.953125 1244.863281 " fill-opacity="1" fill-rule="evenodd"/><path fill="#204938" d="M 672.445312 1251.625 C 668.53125 1258.121094 660.214844 1263.21875 653.722656 1264.238281 C 649.898438 1264.839844 646.699219 1264.042969 645.941406 1260.742188 C 645.574219 1259.152344 646.378906 1257.558594 647.53125 1255.738281 C 649.578125 1252.503906 652.8125 1248.726562 654.792969 1243.71875 C 655.023438 1243.132812 654.738281 1242.472656 654.15625 1242.242188 C 653.574219 1242.011719 652.910156 1242.296875 652.679688 1242.878906 C 650.757812 1247.734375 647.59375 1251.382812 645.609375 1254.523438 C 644.074219 1256.949219 643.238281 1259.132812 643.722656 1261.25 C 644.753906 1265.742188 648.875 1267.300781 654.078125 1266.484375 C 661.121094 1265.375 670.144531 1259.847656 674.394531 1252.796875 C 674.71875 1252.261719 674.546875 1251.5625 674.007812 1251.238281 C 673.46875 1250.914062 672.769531 1251.085938 672.445312 1251.625 Z M 672.445312 1251.625 " fill-opacity="1" fill-rule="evenodd"/><path fill="#204938" d="M 659.316406 1232.578125 C 666.089844 1221.675781 669.328125 1193.304688 669.871094 1183.308594 C 669.90625 1182.683594 669.425781 1182.148438 668.796875 1182.113281 C 668.171875 1182.078125 667.632812 1182.558594 667.601562 1183.1875 C 667.066406 1192.957031 664.007812 1220.71875 657.382812 1231.378906 C 657.050781 1231.914062 657.214844 1232.613281 657.75 1232.945312 C 658.28125 1233.277344 658.984375 1233.113281 659.316406 1232.578125 Z M 659.316406 1232.578125 " fill-opacity="1" fill-rule="evenodd"/><path fill="#204938" d="M 668.847656 1168.425781 C 668.847656 1168.425781 666.179688 1159.882812 668.210938 1146.621094 C 668.308594 1146 667.882812 1145.417969 667.261719 1145.324219 C 666.640625 1145.226562 666.058594 1145.652344 665.964844 1146.273438 C 663.835938 1160.164062 666.675781 1169.109375 666.675781 1169.109375 C 666.867188 1169.707031 667.503906 1170.042969 668.105469 1169.851562 C 668.703125 1169.664062 669.035156 1169.023438 668.847656 1168.425781 Z M 668.847656 1168.425781 " fill-opacity="1" fill-rule="evenodd"/><path fill="#204938" d="M 736.199219 1106.011719 C 736.132812 1105.773438 735.988281 1105.5625 735.792969 1105.414062 C 735.792969 1105.414062 725.335938 1097.203125 700.683594 1110.527344 C 679.480469 1121.984375 675.640625 1140.398438 675.640625 1140.398438 C 675.578125 1140.699219 675.636719 1141.011719 675.808594 1141.269531 C 675.984375 1141.523438 676.25 1141.699219 676.554688 1141.75 C 676.554688 1141.75 692.046875 1144.484375 706.410156 1138.941406 C 715.472656 1135.445312 726.53125 1127.664062 730.851562 1120.824219 C 737.539062 1110.242188 736.199219 1106.011719 736.199219 1106.011719 Z M 734.042969 1106.992188 C 734.089844 1108.125 733.777344 1111.9375 728.929688 1119.609375 C 724.808594 1126.128906 714.230469 1133.484375 705.589844 1136.820312 C 694.179688 1141.222656 682.023438 1140.179688 678.183594 1139.691406 C 679.425781 1135.597656 684.738281 1121.730469 701.761719 1112.53125 C 722.171875 1101.5 732.078125 1105.871094 734.042969 1106.992188 Z M 734.042969 1106.992188 " fill-opacity="1" fill-rule="evenodd"/><path fill="#204938" d="M 734.246094 1105.570312 C 734.246094 1105.570312 728.335938 1112.328125 721.015625 1115.707031 C 720.445312 1115.972656 720.195312 1116.648438 720.460938 1117.21875 C 720.722656 1117.789062 721.398438 1118.039062 721.96875 1117.773438 C 729.707031 1114.203125 735.957031 1107.066406 735.957031 1107.066406 C 736.371094 1106.59375 736.324219 1105.875 735.851562 1105.460938 C 735.378906 1105.046875 734.660156 1105.097656 734.246094 1105.570312 Z M 734.246094 1105.570312 " fill-opacity="1" fill-rule="evenodd"/><path fill="#204938" d="M 731.636719 1100.238281 C 731.894531 1100.019531 732.042969 1099.699219 732.039062 1099.363281 C 732.039062 1099.363281 732.023438 1086.21875 718.671875 1079.527344 C 690.414062 1065.367188 666.175781 1075.585938 666.175781 1075.585938 C 665.886719 1075.707031 665.664062 1075.941406 665.550781 1076.234375 C 665.441406 1076.527344 665.457031 1076.851562 665.597656 1077.136719 C 665.597656 1077.136719 676.410156 1099.304688 703.765625 1104.394531 C 722.65625 1107.910156 731.636719 1100.238281 731.636719 1100.238281 Z M 729.734375 1098.816406 C 727.804688 1100.144531 719.464844 1105.003906 704.183594 1102.15625 C 681.628906 1097.960938 670.804688 1081.660156 668.246094 1077.246094 C 673.324219 1075.503906 694.027344 1069.722656 717.652344 1081.5625 C 728.113281 1086.804688 729.542969 1096.410156 729.738281 1098.816406 Z M 729.734375 1098.816406 " fill-opacity="1" fill-rule="evenodd"/><path fill="#204938" d="M 730.886719 1098.230469 C 730.886719 1098.230469 721.539062 1098.371094 712.332031 1094.96875 C 711.742188 1094.753906 711.085938 1095.054688 710.871094 1095.644531 C 710.652344 1096.230469 710.953125 1096.886719 711.542969 1097.105469 C 721.160156 1100.65625 730.921875 1100.503906 730.921875 1100.503906 C 731.550781 1100.496094 732.050781 1099.976562 732.039062 1099.347656 C 732.03125 1098.722656 731.515625 1098.222656 730.886719 1098.230469 Z M 730.886719 1098.230469 " fill-opacity="1" fill-rule="evenodd"/><path fill="#204938" d="M 750.664062 1177.699219 C 751.171875 1178.058594 751.871094 1177.945312 752.238281 1177.445312 C 752.238281 1177.445312 764.082031 1161.484375 760.152344 1136.300781 C 755.933594 1109.265625 739.78125 1107.605469 739.78125 1107.605469 C 739.496094 1107.570312 739.207031 1107.652344 738.972656 1107.820312 C 738.972656 1107.820312 727.59375 1116.226562 728.828125 1134.351562 C 730.832031 1163.6875 750.664062 1177.699219 750.664062 1177.699219 Z M 751.054688 1175.121094 C 747.230469 1171.988281 732.765625 1158.601562 731.097656 1134.199219 C 730.085938 1119.351562 738.128906 1111.53125 739.964844 1109.949219 C 742.425781 1110.496094 754.417969 1114.292969 757.90625 1136.652344 C 761.117188 1157.234375 753.394531 1171.398438 751.054688 1175.121094 Z M 751.054688 1175.121094 " fill-opacity="1" fill-rule="evenodd"/><path fill="#204938" d="M 738.515625 1108.695312 C 738.515625 1108.695312 737.859375 1127.054688 744.355469 1140.496094 C 744.628906 1141.058594 745.308594 1141.296875 745.875 1141.023438 C 746.4375 1140.75 746.675781 1140.070312 746.402344 1139.503906 C 740.125 1126.523438 740.789062 1108.777344 740.789062 1108.777344 C 740.8125 1108.148438 740.324219 1107.621094 739.695312 1107.597656 C 739.066406 1107.574219 738.539062 1108.066406 738.515625 1108.695312 Z M 738.515625 1108.695312 " fill-opacity="1" fill-rule="evenodd"/><path fill="#204938" d="M 743.644531 1103.382812 C 743.246094 1103.652344 743.054688 1104.144531 743.175781 1104.609375 C 743.175781 1104.609375 746.980469 1119.816406 765.113281 1129.125 C 783.734375 1138.675781 809.105469 1131.40625 809.105469 1131.40625 C 809.429688 1131.3125 809.699219 1131.078125 809.832031 1130.765625 C 809.96875 1130.453125 809.957031 1130.097656 809.804688 1129.796875 C 809.804688 1129.796875 799.828125 1110.175781 777.003906 1102.59375 C 755.425781 1095.425781 743.644531 1103.382812 743.644531 1103.382812 Z M 745.632812 1104.867188 C 748.398438 1103.429688 759 1099.007812 776.285156 1104.75 C 794.789062 1110.898438 804.503906 1125.273438 807.074219 1129.582031 C 801.640625 1130.90625 781.507812 1134.976562 766.152344 1127.097656 C 751.492188 1119.574219 746.703125 1108.015625 745.632812 1104.867188 Z M 745.632812 1104.867188 " fill-opacity="1" fill-rule="evenodd"/><path fill="#204938" d="M 744.421875 1105.460938 C 744.421875 1105.460938 750.699219 1104.808594 758.117188 1114.699219 C 758.496094 1115.203125 759.207031 1115.304688 759.710938 1114.929688 C 760.214844 1114.550781 760.316406 1113.839844 759.9375 1113.335938 C 751.507812 1102.09375 744.132812 1103.203125 744.132812 1103.203125 C 743.507812 1103.28125 743.070312 1103.855469 743.148438 1104.476562 C 743.230469 1105.097656 743.800781 1105.539062 744.421875 1105.460938 Z M 744.421875 1105.460938 " fill-opacity="1" fill-rule="evenodd"/><path fill="#204938" d="M 742.261719 1099.058594 C 742.261719 1099.5625 742.601562 1100.003906 743.089844 1100.140625 C 743.089844 1100.140625 762.035156 1105.46875 778.332031 1089.058594 C 792.1875 1075.109375 795.382812 1055.191406 795.382812 1055.191406 C 795.429688 1054.882812 795.351562 1054.570312 795.164062 1054.324219 C 794.976562 1054.074219 794.695312 1053.914062 794.386719 1053.878906 C 794.386719 1053.878906 771.714844 1051.277344 752.035156 1072.289062 C 742.132812 1082.855469 742.261719 1099.058594 742.261719 1099.058594 Z M 744.554688 1098.144531 C 744.6875 1094.738281 745.726562 1082.347656 753.695312 1073.84375 C 769.84375 1056.605469 788.058594 1055.917969 792.898438 1056.070312 C 791.96875 1060.519531 788.042969 1076.054688 776.71875 1087.457031 C 763.417969 1100.84375 748.265625 1098.878906 744.554688 1098.144531 Z M 744.554688 1098.144531 " fill-opacity="1" fill-rule="evenodd"/><path fill="#204938" d="M 744.351562 1099.667969 C 744.351562 1099.667969 751.828125 1088.117188 764.441406 1084.054688 C 765.039062 1083.863281 765.367188 1083.222656 765.175781 1082.625 C 764.984375 1082.027344 764.34375 1081.699219 763.746094 1081.890625 C 750.375 1086.195312 742.441406 1098.429688 742.441406 1098.429688 C 742.101562 1098.957031 742.25 1099.660156 742.777344 1100.003906 C 743.304688 1100.34375 744.011719 1100.191406 744.351562 1099.667969 Z M 744.351562 1099.667969 " fill-opacity="1" fill-rule="evenodd"/><path fill="#204938" d="M 736.242188 1095.773438 C 736.398438 1095.789062 736.5625 1095.773438 736.714844 1095.722656 C 736.714844 1095.722656 749.28125 1091.707031 747.835938 1067.054688 C 746.539062 1044.945312 728.574219 1026.6875 728.574219 1026.6875 C 728.320312 1026.433594 727.957031 1026.3125 727.597656 1026.363281 C 727.238281 1026.414062 726.929688 1026.636719 726.757812 1026.957031 C 726.757812 1026.957031 714.332031 1050.527344 718.285156 1069.121094 C 723.734375 1094.773438 736.242188 1095.773438 736.242188 1095.773438 Z M 736.21875 1093.464844 C 734.582031 1093.109375 725.078125 1090.148438 720.507812 1068.644531 C 717.273438 1053.417969 725.5 1034.734375 728.046875 1029.464844 C 731.875 1033.738281 744.503906 1049.121094 745.5625 1067.1875 C 746.769531 1087.722656 737.796875 1092.746094 736.222656 1093.464844 Z M 736.21875 1093.464844 " fill-opacity="1" fill-rule="evenodd"/><path fill="#204938" d="M 732.625 1070.542969 C 732.625 1070.542969 736.082031 1081.582031 735.214844 1094.566406 C 735.175781 1095.195312 735.648438 1095.734375 736.277344 1095.777344 C 736.902344 1095.820312 737.445312 1095.347656 737.488281 1094.71875 C 738.378906 1081.28125 734.792969 1069.863281 734.792969 1069.863281 C 734.605469 1069.265625 733.96875 1068.929688 733.367188 1069.117188 C 732.769531 1069.304688 732.433594 1069.945312 732.625 1070.542969 Z M 732.625 1070.542969 " fill-opacity="1" fill-rule="evenodd"/><path fill="#204938" d="M 572.019531 1265.125 C 572.019531 1265.125 588.285156 1242.675781 605.265625 1226.351562 C 622.382812 1209.890625 674.113281 1156.410156 688.40625 1097.535156 C 688.554688 1096.925781 688.175781 1096.3125 687.570312 1096.164062 C 686.957031 1096.015625 686.34375 1096.390625 686.195312 1097 C 672.023438 1155.386719 620.664062 1208.386719 603.6875 1224.710938 C 586.574219 1241.164062 570.179688 1263.789062 570.179688 1263.789062 C 569.808594 1264.296875 569.921875 1265.011719 570.433594 1265.378906 C 570.941406 1265.746094 571.652344 1265.632812 572.019531 1265.125 Z M 572.019531 1265.125 " fill-opacity="1" fill-rule="evenodd"/><path fill="#204938" d="M 575.398438 1106.964844 C 574.40625 1108.789062 574.207031 1110.441406 574.664062 1111.738281 C 575 1112.691406 575.683594 1113.492188 576.757812 1114.058594 C 578.082031 1114.761719 580.089844 1115.109375 582.835938 1114.867188 C 586.605469 1114.535156 591.878906 1113.105469 598.75 1110.113281 C 608.015625 1106.082031 623.648438 1095.882812 631.351562 1087.636719 C 637.289062 1081.277344 639.738281 1076.296875 640.332031 1072.804688 C 640.785156 1070.132812 640.191406 1068.214844 639.21875 1067.046875 C 638.035156 1065.621094 635.90625 1064.214844 632.207031 1064.535156 C 628.914062 1064.820312 624.222656 1066.550781 617.660156 1071.226562 C 610.648438 1076.226562 594.492188 1088.578125 584.28125 1097.652344 C 579.78125 1101.652344 576.429688 1105.0625 575.398438 1106.964844 Z M 577.398438 1108.050781 C 578.367188 1106.261719 581.566406 1103.113281 585.792969 1099.351562 C 595.945312 1090.328125 612.011719 1078.050781 618.980469 1073.082031 C 625.054688 1068.75 629.355469 1067.066406 632.40625 1066.800781 C 635.054688 1066.570312 636.621094 1067.476562 637.46875 1068.5 C 638.125 1069.292969 638.398438 1070.613281 638.089844 1072.425781 C 637.542969 1075.65625 635.183594 1080.203125 629.691406 1086.082031 C 622.167969 1094.136719 606.890625 1104.089844 597.84375 1108.027344 C 588.816406 1111.957031 582.738281 1113.140625 579.296875 1112.523438 C 578.007812 1112.292969 577.15625 1111.835938 576.839844 1111.058594 C 576.507812 1110.246094 576.761719 1109.21875 577.398438 1108.050781 Z M 577.398438 1108.050781 " fill-opacity="1" fill-rule="evenodd"/><path fill="#204938" d="M 633.320312 1082.519531 C 633.320312 1082.519531 634.449219 1083.789062 634.449219 1083.789062 C 634.449219 1083.789062 634.453125 1083.761719 634.457031 1083.722656 C 634.472656 1083.539062 634.535156 1082.550781 633.945312 1081.3125 C 633.367188 1080.097656 632.128906 1078.5625 629.367188 1077.4375 C 626.082031 1076.101562 620.4375 1075.304688 610.730469 1076.523438 C 610.109375 1076.601562 609.664062 1077.171875 609.742188 1077.792969 C 609.820312 1078.417969 610.390625 1078.859375 611.011719 1078.78125 C 620.125 1077.640625 625.425781 1078.292969 628.507812 1079.546875 C 632.324219 1081.097656 632.191406 1083.519531 632.191406 1083.519531 C 632.117188 1084.144531 632.5625 1084.710938 633.183594 1084.785156 C 633.808594 1084.859375 634.375 1084.414062 634.449219 1083.792969 Z M 633.320312 1082.519531 " fill-opacity="1" fill-rule="evenodd"/><path fill="#204938" d="M 638.09375 1067.386719 C 638.09375 1067.386719 665.03125 1030.351562 675.71875 990.425781 C 675.882812 989.820312 675.519531 989.195312 674.914062 989.035156 C 674.308594 988.871094 673.683594 989.230469 673.523438 989.839844 C 662.9375 1029.378906 636.253906 1066.046875 636.253906 1066.046875 C 635.886719 1066.554688 635.996094 1067.265625 636.503906 1067.636719 C 637.011719 1068.003906 637.722656 1067.890625 638.09375 1067.386719 Z M 638.09375 1067.386719 " fill-opacity="1" fill-rule="evenodd"/><path fill="#204938" d="M 724.101562 1080.378906 C 724.101562 1080.378906 709.613281 1061.101562 698.414062 1028.765625 C 698.210938 1028.171875 697.5625 1027.855469 696.96875 1028.0625 C 696.375 1028.265625 696.0625 1028.914062 696.265625 1029.507812 C 707.597656 1062.242188 722.28125 1081.746094 722.28125 1081.746094 C 722.660156 1082.246094 723.371094 1082.347656 723.875 1081.96875 C 724.375 1081.59375 724.476562 1080.878906 724.101562 1080.378906 Z M 724.101562 1080.378906 " fill-opacity="1" fill-rule="evenodd"/><path fill="#204938" d="M 746.597656 898.929688 C 746.671875 899.449219 747.09375 899.847656 747.617188 899.894531 C 748.136719 899.945312 748.625 899.628906 748.796875 899.132812 C 748.796875 899.132812 765.167969 851.789062 720.320312 812.800781 C 699.835938 794.992188 689.542969 768.71875 684.527344 743.625 C 676.972656 705.820312 681.414062 670.632812 681.414062 670.632812 C 681.484375 670.058594 681.113281 669.519531 680.546875 669.386719 C 679.984375 669.25 679.410156 669.558594 679.214844 670.105469 C 679.214844 670.105469 668.421875 700.128906 674.179688 741.195312 C 683.984375 811.078125 694.027344 811.882812 721.738281 842.179688 C 741.410156 863.6875 746.597656 898.929688 746.597656 898.929688 Z M 747.890625 893.53125 C 745.625 882.839844 738.90625 857.578125 723.414062 840.644531 C 696.039062 810.714844 686.117188 809.917969 676.433594 740.878906 C 672.949219 716.039062 675.601562 695.304688 678.167969 683 C 677.492188 696.707031 677.457031 719.855469 682.296875 744.070312 C 687.40625 769.640625 697.957031 796.371094 718.824219 814.515625 C 753.90625 845.015625 750.542969 880.738281 747.890625 893.53125 Z M 747.890625 893.53125 " fill-opacity="1" fill-rule="evenodd"/><path fill="#204938" d="M 702.355469 874.902344 C 702.296875 874.457031 701.980469 874.089844 701.550781 873.960938 C 701.121094 873.835938 700.65625 873.972656 700.363281 874.3125 C 675.949219 902.894531 670.902344 928.609375 668.554688 948.777344 C 667.019531 961.945312 666.707031 972.703125 662.683594 980.265625 C 655.042969 994.609375 651.925781 1014.09375 651.925781 1014.09375 C 651.851562 1014.550781 652.0625 1015.003906 652.453125 1015.246094 C 652.84375 1015.484375 653.34375 1015.464844 653.714844 1015.195312 C 653.714844 1015.195312 679.019531 996.894531 693.234375 954.570312 C 707.40625 912.375 702.355469 874.902344 702.355469 874.902344 Z M 700.378906 877.835938 C 701.195312 886.976562 702.859375 918.757812 691.078125 953.84375 C 679.730469 987.636719 661.21875 1005.84375 654.722656 1011.449219 C 655.902344 1005.523438 659.019531 991.980469 664.6875 981.335938 C 668.820312 973.574219 669.238281 962.550781 670.8125 949.042969 C 673.066406 929.683594 677.839844 905.128906 700.378906 877.835938 Z M 700.378906 877.835938 " fill-opacity="1" fill-rule="evenodd"/><path fill="#204938" d="M 725.683594 1001.359375 C 726.390625 1000.910156 727.449219 999.441406 728.546875 997.21875 C 730.828125 992.589844 733.632812 984.519531 734.980469 977.050781 C 735.769531 972.699219 736.054688 968.546875 735.5 965.363281 C 735.089844 963.007812 734.207031 961.152344 732.824219 960.003906 C 731.484375 958.890625 729.613281 959.230469 727.679688 961.121094 C 724.347656 964.378906 720.355469 972.4375 718.410156 979.609375 C 717.023438 984.738281 716.507812 993.191406 718.035156 998.03125 C 718.769531 1000.359375 720.019531 1001.894531 721.644531 1002.296875 C 722.75 1002.574219 724.097656 1002.363281 725.683594 1001.359375 Z M 724.460938 999.4375 C 723.5625 1000.011719 722.824219 1000.246094 722.191406 1000.089844 C 721.210938 999.84375 720.648438 998.757812 720.203125 997.347656 C 718.785156 992.84375 719.3125 984.976562 720.609375 980.203125 C 722.4375 973.445312 726.128906 965.820312 729.269531 962.746094 C 729.71875 962.308594 730.148438 961.972656 730.558594 961.773438 C 730.863281 961.632812 731.140625 961.5625 731.371094 961.753906 C 732.390625 962.601562 732.957031 964.011719 733.257812 965.753906 C 733.777344 968.71875 733.476562 972.589844 732.746094 976.648438 C 731.433594 983.894531 728.722656 991.722656 726.507812 996.214844 C 725.964844 997.3125 725.457031 998.207031 725.007812 998.824219 C 724.796875 999.113281 724.625 999.332031 724.460938 999.4375 Z M 724.460938 999.4375 " fill-opacity="1" fill-rule="evenodd"/><path fill="#204938" d="M 733.042969 975.355469 C 733.042969 975.355469 724.40625 990.050781 717.933594 993.960938 C 717.394531 994.285156 717.222656 994.984375 717.546875 995.523438 C 717.871094 996.058594 718.570312 996.234375 719.109375 995.910156 C 725.878906 991.816406 735 976.511719 735 976.511719 C 735.320312 975.972656 735.140625 975.273438 734.601562 974.953125 C 734.058594 974.632812 733.363281 974.8125 733.042969 975.355469 Z M 733.042969 975.355469 " fill-opacity="1" fill-rule="evenodd"/><path fill="#204938" d="M 732.152344 928.472656 C 731.511719 928.269531 730.960938 928.328125 730.488281 928.550781 C 730.058594 928.753906 729.675781 929.117188 729.382812 929.664062 C 729.007812 930.367188 728.773438 931.472656 728.710938 932.867188 C 728.472656 938.511719 730.929688 949.492188 733.414062 954.640625 C 735.898438 959.785156 741.898438 970.261719 746.761719 973.785156 C 748.300781 974.902344 749.78125 975.355469 751.046875 975.074219 C 751.96875 974.871094 752.828125 974.300781 753.542969 973.210938 C 754.238281 972.144531 755.074219 968.375 755.035156 963.367188 C 754.941406 952.085938 750.671875 934.402344 732.152344 928.472656 Z M 731.453125 930.640625 L 731.457031 930.640625 C 748.796875 936.1875 752.671875 952.824219 752.757812 963.386719 C 752.78125 966.097656 752.550781 968.414062 752.226562 970.039062 C 752.039062 970.964844 751.847656 971.640625 751.636719 971.96875 C 751.316406 972.457031 750.972656 972.761719 750.558594 972.851562 C 749.816406 973.019531 749 972.597656 748.097656 971.945312 C 743.464844 968.585938 737.828125 958.550781 735.464844 953.652344 C 733.097656 948.757812 730.757812 938.328125 730.984375 932.960938 C 731.003906 932.535156 731.039062 932.144531 731.09375 931.796875 C 731.132812 931.542969 731.179688 931.3125 731.242188 931.109375 C 731.28125 930.976562 731.328125 930.859375 731.378906 930.753906 C 731.398438 930.71875 731.429688 930.671875 731.453125 930.640625 Z M 731.453125 930.640625 " fill-opacity="1" fill-rule="evenodd"/><path fill="#204938" d="M 729.167969 939.074219 C 729.167969 939.074219 734.566406 954.058594 753.375 963.070312 C 753.941406 963.34375 754.621094 963.105469 754.890625 962.539062 C 755.164062 961.972656 754.921875 961.292969 754.359375 961.019531 C 736.496094 952.460938 731.304688 938.300781 731.304688 938.300781 C 731.09375 937.710938 730.4375 937.402344 729.847656 937.617188 C 729.257812 937.832031 728.953125 938.488281 729.167969 939.074219 Z M 729.167969 939.074219 " fill-opacity="1" fill-rule="evenodd"/><path fill="#204938" d="M 733.597656 955 L 733.007812 964.332031 C 732.941406 964.957031 733.394531 965.519531 734.019531 965.585938 C 734.644531 965.652344 735.203125 965.199219 735.269531 964.578125 C 735.269531 964.578125 736.167969 955.820312 735.824219 954.332031 C 735.683594 953.730469 735.328125 953.464844 735.101562 953.359375 C 734.78125 953.207031 734.433594 953.183594 734.058594 953.367188 C 733.492188 953.640625 733.257812 954.324219 733.535156 954.886719 C 733.554688 954.925781 733.574219 954.964844 733.597656 955 Z M 734.671875 955.519531 C 734.777344 955.511719 734.886719 955.484375 735 955.433594 C 734.894531 955.480469 734.78125 955.507812 734.671875 955.519531 Z M 734.671875 955.519531 " fill-opacity="1" fill-rule="evenodd"/><path fill="#204938" d="M 732 929.515625 C 732 929.515625 727.652344 888.496094 698.792969 845.207031 C 670.3125 802.480469 676.441406 741.152344 676.441406 741.152344 C 676.5 740.527344 676.042969 739.96875 675.417969 739.90625 C 674.792969 739.84375 674.238281 740.300781 674.175781 740.925781 C 674.175781 740.925781 668.007812 803.128906 696.902344 846.46875 C 725.414062 889.238281 729.738281 929.757812 729.738281 929.757812 C 729.804688 930.382812 730.367188 930.835938 730.992188 930.769531 C 731.613281 930.703125 732.066406 930.140625 732 929.515625 Z M 732 929.515625 " fill-opacity="1" fill-rule="evenodd"/><path fill="#204938" d="M 702.363281 875.148438 C 702.363281 875.148438 703.679688 859.445312 698.921875 845.46875 C 698.722656 844.875 698.074219 844.554688 697.480469 844.757812 C 696.886719 844.960938 696.566406 845.609375 696.769531 846.203125 C 701.378906 859.742188 700.097656 874.957031 700.097656 874.957031 C 700.042969 875.582031 700.507812 876.132812 701.132812 876.1875 C 701.757812 876.238281 702.308594 875.773438 702.363281 875.148438 Z M 702.363281 875.148438 " fill-opacity="1" fill-rule="evenodd"/><path fill="#204938" d="M 693.921875 1073.53125 C 693.921875 1073.53125 704.546875 995.796875 703.226562 892.953125 C 703.222656 892.324219 702.703125 891.820312 702.078125 891.828125 C 701.449219 891.835938 700.945312 892.351562 700.953125 892.980469 C 702.269531 995.632812 691.667969 1073.222656 691.667969 1073.222656 C 691.582031 1073.84375 692.015625 1074.417969 692.636719 1074.503906 C 693.261719 1074.589844 693.835938 1074.152344 693.921875 1073.53125 Z M 693.921875 1073.53125 " fill-opacity="1" fill-rule="evenodd"/><path fill="#204938" d="M 566.207031 1207.816406 L 79.890625 1207.816406 C 79.890625 1207.816406 79.890625 617.433594 79.890625 617.433594 C 79.890625 616.804688 79.382812 616.292969 78.753906 616.292969 C 78.125 616.292969 77.617188 616.804688 77.617188 617.433594 L 77.617188 1208.953125 C 77.617188 1209.582031 78.125 1210.09375 78.753906 1210.09375 L 566.207031 1210.09375 C 566.839844 1210.09375 567.34375 1209.582031 567.34375 1208.953125 C 567.34375 1208.328125 566.839844 1207.816406 566.207031 1207.816406 Z M 566.207031 1207.816406 " fill-opacity="1" fill-rule="evenodd"/></svg>