<svg xmlns="http://www.w3.org/2000/svg" xmlns:xlink="http://www.w3.org/1999/xlink" width="1080" zoomAndPan="magnify" viewBox="0 0 810 1439.999935" height="1920" preserveAspectRatio="xMidYMid meet" version="1.0"><defs><clipPath id="71f2fdc924"><path d="M 0 148.003906 L 810 148.003906 L 810 1291.753906 L 0 1291.753906 Z M 0 148.003906 " clip-rule="nonzero"/></clipPath></defs><g clip-path="url(#71f2fdc924)"><path fill="#204938" d="M 809.078125 937.734375 C 808.347656 931.464844 805.101562 923.105469 799.441406 912.859375 C 799.191406 912.40625 776.671875 873 763.199219 868.773438 C 763.199219 868.773438 763.199219 868.773438 763.183594 868.773438 C 764.246094 865.714844 765.226562 862.628906 766.101562 859.507812 C 783.300781 798.6875 762.542969 733.332031 745.875 680.824219 C 745.78125 680.542969 745.640625 680.277344 745.484375 680.042969 L 745.484375 489.207031 C 745.484375 398.257812 710.066406 312.753906 645.753906 248.4375 C 581.441406 184.125 495.933594 148.710938 404.984375 148.710938 C 314.035156 148.710938 228.527344 184.125 164.214844 248.4375 C 140.246094 272.40625 120.285156 299.339844 104.671875 328.394531 C 102.347656 311.160156 101.179688 293.789062 103.597656 276.789062 C 104.296875 276.679688 104.984375 276.476562 105.6875 276.230469 C 107.886719 275.402344 109.976562 273.890625 111.863281 271.738281 C 115.402344 267.730469 117.648438 262.316406 118.242188 256.328125 C 118.242188 256.328125 118.242188 256.3125 118.242188 256.3125 C 118.675781 256.328125 119.097656 256.359375 119.535156 256.359375 C 122.589844 256.359375 125.632812 256.019531 128.609375 255.316406 C 138.34375 253.054688 147.136719 247.003906 152.738281 238.707031 C 155.417969 234.746094 158.414062 228.601562 157.539062 221.832031 C 156.636719 214.894531 151.238281 209.125 144.984375 208.40625 C 143.144531 208.1875 141.226562 208.375 139.167969 208.96875 C 138.625 208.4375 138.046875 207.953125 137.421875 207.53125 C 134.925781 205.832031 131.683594 204.992188 128.066406 205.101562 C 125.695312 205.179688 123.277344 205.660156 121.015625 206.535156 C 118.863281 205.132812 116.386719 204.273438 113.875 204.085938 C 110.582031 203.835938 107.277344 204.726562 104.53125 206.472656 C 104.53125 206.472656 104.53125 206.457031 104.515625 206.457031 C 103.707031 205.550781 102.832031 204.773438 101.867188 204.148438 C 99.371094 202.496094 96.1875 201.714844 92.695312 201.886719 C 87.582031 202.121094 82.792969 204.351562 79.628906 207.859375 C 79.628906 207.859375 79.628906 207.875 79.613281 207.875 C 79.113281 207.625 78.628906 207.394531 78.128906 207.191406 C 73.609375 205.351562 68.820312 205.320312 64.96875 207.082031 C 60.179688 209.265625 56.75 214.378906 56.25 220.085938 C 55.828125 224.8125 57.328125 229.910156 60.429688 234.449219 C 63.363281 238.738281 67.308594 241.980469 70.425781 244.351562 C 76.914062 249.25 82.667969 252.273438 88.53125 253.898438 C 89.5625 254.175781 90.574219 254.394531 91.589844 254.597656 C 91.589844 254.597656 91.589844 254.597656 91.589844 254.613281 C 91.589844 255.332031 91.605469 255.988281 91.621094 256.609375 C 91.652344 257.5 91.683594 258.339844 91.636719 259.214844 L 91.558594 260.539062 C 91.417969 262.753906 91.261719 265.03125 91.667969 267.417969 C 92.289062 271.207031 94.285156 274.265625 97.125 275.808594 C 97.21875 275.855469 97.328125 275.917969 97.421875 275.964844 C 94.503906 296.59375 96.609375 317.429688 99.761719 337.921875 L 99.761719 337.9375 C 93.414062 350.710938 87.894531 363.839844 83.230469 377.300781 C 82.480469 377.285156 81.765625 377.378906 81.125 377.503906 C 74.792969 378.796875 71.613281 384.910156 71.613281 395.71875 C 71.613281 400.253906 72.171875 405.621094 73.296875 411.796875 C 67.480469 436.886719 64.5 462.804688 64.5 489.191406 L 64.5 532.03125 C 60.523438 539.519531 56.703125 547.113281 53.273438 554.878906 C 52.726562 552.648438 52.007812 550.105469 51.058594 547.191406 C 47.578125 536.476562 41.980469 523.703125 36.085938 513.023438 C 30.425781 502.777344 25.078125 495.585938 20.164062 491.625 C 13.847656 486.527344 9.058594 487.367188 6.144531 488.972656 C 3.242188 490.582031 -0.03125 494.183594 0.917969 502.246094 C 1.652344 508.5 4.898438 516.875 10.558594 527.121094 C 10.808594 527.570312 33.324219 566.964844 46.800781 571.191406 C 46.800781 571.191406 46.816406 571.191406 46.816406 571.191406 C 45.753906 574.246094 44.773438 577.335938 43.882812 580.453125 C 26.683594 641.273438 47.4375 706.632812 64.109375 759.140625 C 64.203125 759.421875 64.34375 759.671875 64.5 759.90625 L 64.5 950.753906 C 64.5 1041.707031 99.917969 1127.210938 164.230469 1191.527344 C 228.542969 1255.839844 314.050781 1291.253906 405 1291.253906 C 495.949219 1291.253906 581.457031 1255.839844 645.769531 1191.527344 C 669.738281 1167.554688 689.699219 1140.625 705.3125 1111.570312 C 707.632812 1128.800781 708.804688 1146.175781 706.386719 1163.175781 C 705.683594 1163.28125 704.984375 1163.46875 704.296875 1163.734375 C 702.097656 1164.546875 700.007812 1166.058594 698.121094 1168.210938 C 694.582031 1172.234375 692.335938 1177.644531 691.742188 1183.617188 C 691.742188 1183.617188 691.742188 1183.617188 691.742188 1183.632812 C 688.265625 1183.523438 684.773438 1183.851562 681.371094 1184.648438 C 671.640625 1186.910156 662.847656 1192.960938 657.246094 1201.257812 C 654.566406 1205.21875 651.570312 1211.363281 652.445312 1218.128906 C 653.347656 1225.054688 658.746094 1230.839844 664.996094 1231.558594 C 665.496094 1231.621094 666.011719 1231.652344 666.511719 1231.652344 C 667.882812 1231.652344 669.316406 1231.417969 670.816406 1230.996094 C 670.816406 1230.996094 670.832031 1231.011719 670.832031 1231.011719 C 671.359375 1231.558594 671.9375 1232.027344 672.546875 1232.429688 C 674.902344 1234.039062 677.894531 1234.878906 681.261719 1234.878906 L 681.902344 1234.878906 C 684.289062 1234.800781 686.691406 1234.316406 688.96875 1233.445312 C 691.121094 1234.832031 693.597656 1235.691406 696.109375 1235.878906 C 696.484375 1235.910156 696.84375 1235.925781 697.21875 1235.925781 C 700.132812 1235.925781 703.019531 1235.050781 705.464844 1233.492188 C 705.464844 1233.492188 705.464844 1233.492188 705.464844 1233.507812 C 706.261719 1234.425781 707.152344 1235.207031 708.117188 1235.832031 C 710.394531 1237.328125 713.234375 1238.109375 716.351562 1238.109375 C 716.664062 1238.109375 716.976562 1238.109375 717.289062 1238.09375 C 722.402344 1237.859375 727.191406 1235.613281 730.355469 1232.117188 C 730.355469 1232.117188 730.371094 1232.105469 730.371094 1232.105469 C 730.855469 1232.351562 731.355469 1232.585938 731.835938 1232.789062 C 734.144531 1233.726562 736.53125 1234.191406 738.808594 1234.191406 C 741.007812 1234.191406 743.113281 1233.757812 745 1232.898438 C 749.789062 1230.714844 753.21875 1225.601562 753.71875 1219.894531 C 754.136719 1215.167969 752.640625 1210.066406 749.539062 1205.53125 C 746.605469 1201.242188 742.660156 1197.996094 739.542969 1195.628906 C 733.054688 1190.730469 727.300781 1187.703125 721.4375 1186.082031 C 720.40625 1185.800781 719.394531 1185.566406 718.378906 1185.382812 C 718.378906 1184.664062 718.363281 1184.007812 718.347656 1183.386719 C 718.316406 1182.496094 718.285156 1181.652344 718.332031 1180.78125 L 718.410156 1179.457031 C 718.550781 1177.242188 718.707031 1174.964844 718.300781 1172.578125 C 717.675781 1168.773438 715.679688 1165.714844 712.84375 1164.1875 C 712.75 1164.140625 712.640625 1164.078125 712.546875 1164.03125 C 715.464844 1143.398438 713.359375 1122.566406 710.207031 1102.074219 L 710.207031 1102.058594 C 716.554688 1089.285156 722.074219 1076.15625 726.738281 1062.695312 L 726.832031 1062.695312 C 727.550781 1062.695312 728.21875 1062.617188 728.84375 1062.492188 C 735.175781 1061.199219 738.355469 1055.085938 738.355469 1044.277344 C 738.355469 1039.742188 737.792969 1034.375 736.671875 1028.199219 C 742.488281 1003.109375 745.46875 977.1875 745.46875 950.800781 L 745.46875 907.964844 C 749.429688 900.492188 753.25 892.898438 756.679688 885.148438 C 760.75 902.347656 773.679688 926.613281 773.882812 926.957031 C 783.191406 943.816406 791.613281 952.300781 799.003906 952.300781 C 800.65625 952.300781 802.265625 951.878906 803.824219 951.019531 C 806.757812 949.398438 810.03125 945.78125 809.078125 937.734375 Z M 107.199219 267.621094 C 106 268.992188 104.75 269.929688 103.519531 270.378906 C 102.300781 270.832031 100.992188 270.816406 100.089844 270.332031 C 98.964844 269.726562 98.125 268.257812 97.8125 266.402344 C 97.53125 264.734375 97.65625 262.894531 97.78125 260.960938 L 97.859375 259.542969 C 97.921875 258.417969 97.890625 257.40625 97.859375 256.4375 C 97.84375 256.078125 97.84375 255.722656 97.84375 255.363281 C 102.457031 255.675781 106.902344 256.140625 111.925781 256.796875 C 111.316406 261.039062 109.679688 264.8125 107.199219 267.621094 Z M 144.269531 214.613281 C 148.105469 215.050781 150.878906 219.042969 151.347656 222.644531 C 151.988281 227.480469 149.648438 232.140625 147.574219 235.214844 C 142.847656 242.214844 135.425781 247.316406 127.207031 249.234375 C 125.070312 249.734375 122.871094 250.011719 120.671875 250.089844 C 120.671875 250.089844 120.6875 250.089844 120.6875 250.089844 C 120.703125 250.105469 120.703125 250.105469 120.71875 250.089844 C 120.71875 250.089844 120.71875 250.105469 120.734375 250.089844 C 128.734375 246.113281 135.457031 239.90625 139.808594 232.203125 C 142.273438 227.820312 143.472656 223.828125 143.488281 219.960938 C 143.503906 218.121094 143.207031 216.3125 142.617188 214.644531 C 143.191406 214.582031 143.738281 214.550781 144.269531 214.613281 Z M 125.914062 211.617188 C 126.691406 211.464844 127.488281 211.371094 128.269531 211.355469 C 129.875 211.292969 132.152344 211.496094 133.929688 212.710938 C 134.507812 213.101562 135.019531 213.613281 135.488281 214.238281 C 135.535156 214.300781 135.582031 214.378906 135.628906 214.441406 C 136.660156 215.921875 137.25 217.886719 137.25 219.867188 L 137.25 219.945312 C 137.25 222.707031 136.300781 225.714844 134.367188 229.148438 C 130.761719 235.527344 125.210938 240.765625 118.628906 244.148438 C 120.875 241.078125 122.839844 237.816406 124.539062 234.371094 C 126.613281 230.160156 127.769531 226.574219 128.144531 223.128906 C 128.59375 218.871094 127.800781 214.832031 125.914062 211.617188 Z M 113.421875 210.339844 C 115.277344 210.480469 117.117188 211.246094 118.597656 212.492188 C 118.613281 212.507812 118.628906 212.507812 118.644531 212.523438 C 118.644531 212.523438 118.660156 212.539062 118.660156 212.539062 C 119.238281 213.023438 119.753906 213.597656 120.191406 214.238281 C 121.65625 216.359375 122.28125 219.292969 121.9375 222.457031 C 121.640625 225.15625 120.6875 228.070312 118.941406 231.628906 C 115.964844 237.664062 112.019531 243.121094 107.230469 247.832031 C 107.199219 247.816406 107.167969 247.800781 107.121094 247.785156 C 106.542969 247.566406 105.96875 247.316406 105.375 247.050781 C 102.800781 239.535156 101.804688 231.472656 102.503906 223.628906 C 102.957031 218.730469 104.097656 215.410156 106.046875 213.273438 L 106.0625 213.257812 C 106.078125 213.242188 106.078125 213.242188 106.09375 213.226562 C 106.109375 213.210938 106.125 213.195312 106.140625 213.179688 C 107.964844 211.230469 110.753906 210.136719 113.421875 210.339844 Z M 92.992188 208.140625 C 93.195312 208.140625 93.398438 208.125 93.617188 208.125 C 95.066406 208.125 96.90625 208.375 98.449219 209.390625 C 99.011719 209.761719 99.542969 210.261719 100.042969 210.855469 C 98.683594 212.851562 97.84375 215.035156 97.28125 217.15625 C 96.71875 219.277344 96.453125 221.335938 96.296875 223.066406 C 95.613281 230.753906 96.390625 238.644531 98.527344 246.113281 C 92.257812 241.980469 87.097656 236.117188 83.964844 229.429688 C 82.574219 226.496094 81.78125 223.859375 81.546875 221.382812 C 81.28125 218.621094 81.765625 215.984375 82.886719 213.972656 C 82.917969 213.910156 82.949219 213.863281 82.980469 213.800781 C 83.011719 213.753906 83.042969 213.707031 83.074219 213.660156 C 83.089844 213.628906 83.105469 213.613281 83.121094 213.582031 C 85.023438 210.464844 88.90625 208.328125 92.992188 208.140625 Z M 74.183594 239.410156 C 71.457031 237.335938 67.992188 234.511719 65.578125 230.957031 C 63.285156 227.605469 62.175781 223.953125 62.457031 220.664062 C 62.753906 217.203125 64.8125 214.035156 67.558594 212.773438 C 69.847656 211.726562 72.84375 211.804688 75.792969 212.992188 C 75.976562 213.070312 76.179688 213.179688 76.367188 213.257812 C 75.386719 215.90625 75.027344 218.855469 75.324219 221.941406 C 75.621094 225.171875 76.601562 228.476562 78.300781 232.078125 C 81.1875 238.222656 85.382812 243.636719 90.574219 247.984375 C 90.433594 247.957031 90.308594 247.941406 90.167969 247.894531 C 85.117188 246.519531 80.03125 243.808594 74.183594 239.410156 Z M 16.015625 524.125 C 10.761719 514.582031 7.765625 506.988281 7.109375 501.527344 C 6.675781 497.816406 7.375 495.445312 9.167969 494.449219 C 9.699219 494.152344 10.277344 494.011719 10.917969 494.011719 C 12.414062 494.011719 14.207031 494.839844 16.25 496.492188 C 20.523438 499.9375 25.355469 506.519531 30.628906 516.0625 C 42.542969 537.660156 49.484375 560.320312 48.265625 565.265625 C 43.433594 563.675781 27.945312 545.722656 16.015625 524.125 Z M 702.800781 1172.375 C 704 1171.003906 705.25 1170.066406 706.480469 1169.597656 C 707.695312 1169.148438 709.007812 1169.179688 709.910156 1169.660156 C 711.035156 1170.253906 711.875 1171.71875 712.1875 1173.589844 C 712.46875 1175.261719 712.34375 1177.085938 712.21875 1179.035156 L 712.140625 1180.4375 C 712.078125 1181.574219 712.109375 1182.574219 712.140625 1183.554688 C 712.15625 1183.914062 712.15625 1184.273438 712.15625 1184.617188 C 707.542969 1184.304688 703.097656 1183.851562 698.074219 1183.183594 C 698.683594 1178.941406 700.320312 1175.183594 702.800781 1172.375 Z M 665.730469 1225.367188 C 661.894531 1224.929688 659.117188 1220.9375 658.652344 1217.335938 C 658.011719 1212.5 660.351562 1207.835938 662.425781 1204.765625 C 667.152344 1197.761719 674.574219 1192.664062 682.792969 1190.746094 C 684.960938 1190.230469 687.175781 1189.949219 689.390625 1189.886719 C 689.375 1189.886719 689.359375 1189.902344 689.359375 1189.902344 C 689.34375 1189.886719 689.3125 1189.886719 689.296875 1189.902344 C 681.3125 1193.832031 674.527344 1200.070312 670.191406 1207.773438 C 667.726562 1212.15625 666.527344 1216.164062 666.511719 1220.015625 C 666.496094 1221.875 666.808594 1223.667969 667.382812 1225.351562 C 666.808594 1225.414062 666.261719 1225.429688 665.730469 1225.367188 Z M 684.085938 1228.375 C 683.308594 1228.53125 682.511719 1228.609375 681.730469 1228.640625 C 680.125 1228.6875 677.847656 1228.5 676.070312 1227.285156 C 675.429688 1226.847656 674.886719 1226.285156 674.386719 1225.570312 C 673.339844 1224.085938 672.734375 1222.074219 672.75 1220.046875 L 672.75 1220.03125 C 672.75 1217.273438 673.699219 1214.277344 675.632812 1210.847656 C 679.238281 1204.453125 684.789062 1199.230469 691.371094 1195.828125 C 689.125 1198.902344 687.160156 1202.175781 685.457031 1205.609375 C 683.382812 1209.832031 682.230469 1213.40625 681.855469 1216.867188 C 681.402344 1221.109375 682.199219 1225.148438 684.085938 1228.375 Z M 696.578125 1229.65625 C 694.722656 1229.515625 692.882812 1228.75 691.402344 1227.503906 C 691.402344 1227.503906 691.386719 1227.488281 691.386719 1227.488281 C 691.386719 1227.488281 691.371094 1227.472656 691.371094 1227.472656 C 690.777344 1226.988281 690.261719 1226.410156 689.808594 1225.757812 C 688.34375 1223.621094 687.71875 1220.703125 688.0625 1217.539062 C 688.359375 1214.824219 689.3125 1211.90625 691.058594 1208.367188 C 694.035156 1202.316406 697.980469 1196.859375 702.769531 1192.164062 C 702.800781 1192.179688 702.832031 1192.195312 702.863281 1192.210938 C 703.441406 1192.429688 704.03125 1192.679688 704.625 1192.945312 C 707.199219 1200.476562 708.195312 1208.539062 707.496094 1216.382812 C 707.042969 1221.328125 705.886719 1224.648438 703.921875 1226.753906 L 703.84375 1226.832031 C 703.84375 1226.832031 703.84375 1226.832031 703.84375 1226.847656 C 702.019531 1228.765625 699.246094 1229.84375 696.578125 1229.65625 Z M 717.007812 1231.839844 C 715.496094 1231.917969 713.328125 1231.761719 711.550781 1230.589844 C 710.988281 1230.214844 710.457031 1229.734375 709.957031 1229.125 C 712.65625 1225.148438 713.390625 1220.375 713.703125 1216.929688 L 713.703125 1216.914062 C 714.386719 1209.242188 713.625 1201.351562 711.472656 1193.863281 C 717.742188 1197.996094 722.902344 1203.875 726.035156 1210.550781 C 727.425781 1213.5 728.21875 1216.132812 728.453125 1218.613281 C 728.71875 1221.359375 728.234375 1223.992188 727.113281 1226.019531 C 727.066406 1226.097656 727.019531 1226.191406 726.925781 1226.332031 C 726.910156 1226.363281 726.894531 1226.378906 726.878906 1226.410156 C 724.976562 1229.515625 721.09375 1231.652344 717.007812 1231.839844 Z M 735.816406 1200.585938 C 738.542969 1202.660156 742.007812 1205.484375 744.421875 1209.039062 C 746.714844 1212.390625 747.824219 1216.039062 747.542969 1219.332031 C 747.246094 1222.792969 745.1875 1225.957031 742.441406 1227.222656 C 740.148438 1228.265625 737.15625 1228.1875 734.207031 1227.003906 C 734.019531 1226.925781 733.820312 1226.816406 733.632812 1226.738281 C 734.613281 1224.085938 734.972656 1221.140625 734.675781 1218.035156 C 734.378906 1214.824219 733.398438 1211.503906 731.699219 1207.914062 C 728.8125 1201.753906 724.601562 1196.34375 719.394531 1191.992188 C 719.535156 1192.023438 719.675781 1192.054688 719.828125 1192.085938 C 724.882812 1193.476562 729.964844 1196.171875 735.816406 1200.585938 Z M 739.261719 858.105469 C 738.261719 859.324219 737.28125 860.351562 736.3125 861.226562 C 733.539062 863.71875 731.199219 864.53125 729.359375 863.640625 C 727.503906 862.753906 726.691406 860.398438 726.941406 856.671875 C 727.285156 851.199219 729.875 843.445312 734.613281 833.652344 C 736.09375 830.582031 737.671875 827.570312 739.261719 824.671875 C 741.304688 820.945312 743.410156 817.386719 745.5 814.082031 C 753.5625 801.292969 761.390625 792.09375 764.632812 790.828125 C 766.117188 795.710938 760.390625 818.714844 749.632812 840.921875 C 748.226562 843.789062 746.855469 846.425781 745.5 848.78125 C 743.363281 852.570312 741.273438 855.6875 739.261719 858.105469 Z M 764.820312 784.421875 C 764.820312 784.421875 764.804688 784.421875 764.804688 784.421875 C 761.640625 784.605469 756.773438 787.617188 748.273438 798.984375 C 747.355469 800.21875 746.417969 801.496094 745.5 802.835938 L 745.5 700.378906 C 753.609375 726.59375 761.59375 755.273438 764.820312 784.421875 Z M 101.554688 349.074219 C 101.882812 351.054688 102.226562 353.035156 102.550781 355.015625 C 106.902344 380.839844 111.410156 407.539062 107.480469 433.363281 C 107.167969 435.421875 106.792969 437.480469 106.371094 439.507812 C 105.84375 429.792969 104.46875 418.984375 102.519531 409.410156 C 100.183594 397.945312 97.21875 389.464844 93.726562 384.222656 C 92.242188 382.007812 90.730469 380.464844 89.265625 379.40625 C 92.882812 369.050781 96.984375 358.929688 101.554688 349.074219 Z M 80.859375 384.394531 C 81.328125 383.988281 81.84375 383.738281 82.371094 383.628906 C 83.917969 383.304688 85.507812 384.050781 87.097656 385.8125 C 87.582031 386.34375 88.050781 386.96875 88.53125 387.683594 C 91.574219 392.253906 94.222656 399.988281 96.40625 410.65625 C 101.351562 434.828125 101.195312 458.535156 98.558594 462.898438 C 94.425781 459.921875 85.007812 438.167969 80.0625 413.996094 C 79.941406 413.371094 79.816406 412.761719 79.707031 412.167969 C 78.222656 404.464844 77.726562 398.554688 77.882812 394.171875 C 78.066406 388.839844 79.253906 385.734375 80.859375 384.394531 Z M 70.738281 489.207031 C 70.738281 467.703125 72.78125 446.648438 76.679688 426.265625 C 80.640625 441.066406 88.46875 465.878906 97.09375 469.042969 C 90.683594 484.53125 82.433594 499.4375 74.324219 514.050781 C 73.125 516.203125 71.921875 518.371094 70.722656 520.554688 L 70.722656 489.207031 Z M 70.738281 581.921875 C 74.199219 577.726562 77.070312 576.023438 79.175781 576.023438 C 79.722656 576.023438 80.203125 576.132812 80.640625 576.351562 C 84.273438 578.097656 84.789062 586.910156 75.386719 606.34375 C 73.902344 609.414062 72.328125 612.421875 70.738281 615.324219 C 68.695312 619.035156 66.589844 622.589844 64.5 625.898438 C 56.4375 638.703125 48.609375 647.886719 45.367188 649.148438 C 43.882812 644.285156 49.609375 621.28125 60.367188 599.074219 C 61.785156 596.128906 63.175781 593.507812 64.5 591.199219 C 66.746094 587.269531 68.835938 584.210938 70.738281 581.921875 Z M 49.886719 582.167969 C 53.429688 569.632812 58.621094 557.5 64.5 545.675781 L 64.5 579.738281 C 61.335938 583.949219 58.074219 589.484375 54.753906 596.34375 C 54.628906 596.609375 48.359375 610.054688 43.773438 624.089844 C 44.148438 609.976562 46.003906 595.925781 49.886719 582.167969 Z M 45.164062 655.464844 C 45.179688 655.464844 45.179688 655.464844 45.164062 655.464844 C 50.714844 654.980469 57.980469 646.625 64.5 637.125 L 64.5 739.617188 C 56.375 713.371094 48.390625 684.644531 45.164062 655.464844 Z M 641.246094 1187.035156 C 580.722656 1247.558594 497.164062 1285.046875 405 1285.046875 C 220.683594 1285.046875 70.738281 1135.085938 70.738281 950.785156 L 70.738281 627.441406 C 76.617188 617.773438 80.890625 609.273438 81 609.054688 C 91.277344 587.847656 92.074219 574.949219 83.371094 570.738281 C 79.347656 568.789062 75.136719 569.570312 70.738281 573.09375 L 70.738281 533.605469 C 73.71875 528.039062 76.757812 522.535156 79.785156 517.078125 C 94.191406 491.09375 109.085938 464.226562 113.640625 434.3125 C 114.746094 427.0625 115.199219 419.796875 115.199219 412.511719 C 115.199219 412.511719 115.214844 412.511719 115.214844 412.511719 C 118.382812 412.308594 123.246094 409.300781 131.714844 397.960938 C 138.46875 388.933594 145.671875 377.003906 150.988281 366.023438 C 156.089844 355.480469 158.882812 346.953125 159.285156 340.667969 C 159.816406 332.558594 156.355469 329.140625 153.359375 327.691406 C 151.925781 326.988281 150.476562 326.648438 148.992188 326.648438 C 141.476562 326.648438 133.335938 335.582031 124.757812 353.296875 C 124.617188 353.578125 117.773438 368.269531 113.15625 382.945312 C 113.15625 382.945312 113.15625 382.960938 113.15625 382.960938 C 111.925781 373.230469 110.304688 363.542969 108.695312 353.984375 C 107.871094 349.121094 107.042969 344.207031 106.277344 339.277344 C 161.34375 230.050781 274.546875 154.945312 405 154.945312 C 589.316406 154.945312 739.261719 304.890625 739.261719 489.207031 L 739.261719 812.335938 C 735.535156 818.386719 731.976562 824.796875 729 830.925781 C 723.898438 841.464844 721.109375 849.996094 720.703125 856.28125 C 720.1875 864.375 723.652344 867.804688 726.628906 869.257812 C 727.800781 869.816406 729.234375 870.253906 730.917969 870.253906 C 733.273438 870.253906 736.078125 869.414062 739.261719 866.886719 L 739.261719 906.386719 C 736.28125 911.957031 733.242188 917.460938 730.214844 922.917969 C 715.804688 948.898438 700.914062 975.769531 696.359375 1005.679688 C 695.253906 1012.933594 694.800781 1020.199219 694.800781 1027.484375 C 694.800781 1027.484375 694.785156 1027.484375 694.785156 1027.484375 C 691.617188 1027.683594 686.769531 1030.695312 678.285156 1042.046875 C 671.53125 1051.0625 664.328125 1063.007812 659.007812 1073.988281 C 653.910156 1084.511719 651.117188 1093.042969 650.714844 1099.34375 C 650.183594 1107.4375 653.644531 1110.867188 656.640625 1112.320312 C 658.074219 1113.003906 659.523438 1113.347656 661.003906 1113.347656 C 664.765625 1113.347656 668.679688 1111.117188 672.71875 1106.671875 C 676.773438 1102.230469 680.953125 1095.554688 685.242188 1086.695312 C 689.714844 1077.449219 693.910156 1066.75 696.84375 1057.097656 L 696.84375 1057.082031 C 696.84375 1057.066406 696.84375 1057.066406 696.84375 1057.050781 C 696.84375 1057.050781 696.84375 1057.035156 696.84375 1057.035156 C 698.074219 1066.765625 699.695312 1076.449219 701.304688 1086.011719 C 702.128906 1090.875 702.957031 1095.789062 703.71875 1100.699219 C 687.5625 1132.765625 666.386719 1161.878906 641.246094 1187.035156 Z M 130.390625 356.011719 C 139.792969 336.582031 147.027344 331.527344 150.664062 333.289062 C 152.503906 334.179688 153.3125 336.519531 153.078125 340.246094 C 152.738281 345.734375 150.148438 353.484375 145.390625 363.28125 C 134.632812 385.488281 120.128906 404.230469 115.386719 406.085938 C 113.90625 401.222656 119.628906 378.21875 130.390625 356.011719 Z M 694.847656 1035.996094 C 694.847656 1043.578125 689.25 1064.097656 679.609375 1083.984375 C 670.207031 1103.414062 662.972656 1108.453125 659.335938 1106.703125 C 657.496094 1105.800781 656.6875 1103.460938 656.921875 1099.734375 C 657.261719 1094.261719 659.851562 1086.507812 664.609375 1076.699219 C 675.367188 1054.492188 689.871094 1035.746094 694.613281 1033.890625 C 694.769531 1034.40625 694.847656 1035.109375 694.847656 1035.996094 Z M 708.445312 1090.921875 C 708.117188 1088.941406 707.773438 1086.960938 707.449219 1084.980469 C 703.097656 1059.15625 698.589844 1032.457031 702.519531 1006.632812 C 702.832031 1004.574219 703.207031 1002.515625 703.628906 1000.488281 C 704.15625 1010.1875 705.53125 1021.011719 707.480469 1030.601562 C 709.816406 1042.0625 712.78125 1050.53125 716.273438 1055.773438 C 717.757812 1057.984375 719.269531 1059.53125 720.734375 1060.589844 C 717.132812 1070.929688 713.015625 1081.050781 708.445312 1090.921875 Z M 729.140625 1055.601562 C 728.671875 1056.003906 728.15625 1056.253906 727.628906 1056.363281 C 726.082031 1056.675781 724.492188 1055.941406 722.902344 1054.164062 C 722.433594 1053.636719 721.949219 1053.011719 721.46875 1052.292969 C 718.425781 1047.726562 715.773438 1040.003906 713.59375 1029.339844 C 708.648438 1005.152344 708.804688 981.445312 711.441406 977.09375 C 713.5 978.578125 716.898438 984.753906 720.390625 993.59375 C 723.867188 1002.421875 727.472656 1013.898438 729.933594 1026 C 730.058594 1026.625 730.183594 1027.234375 730.292969 1027.824219 C 731.777344 1035.53125 732.273438 1041.425781 732.117188 1045.820312 C 731.933594 1051.15625 730.746094 1054.257812 729.140625 1055.601562 Z M 739.261719 950.785156 C 739.261719 972.292969 737.21875 993.34375 733.320312 1013.726562 C 729.359375 998.929688 721.53125 974.117188 712.90625 970.949219 C 719.316406 955.464844 727.566406 940.554688 735.675781 925.945312 C 736.875 923.792969 738.074219 921.625 739.277344 919.441406 L 739.277344 950.785156 Z M 745.5 860.257812 C 748.664062 856.046875 751.925781 850.496094 755.246094 843.632812 C 759.394531 835.042969 763.324219 825.230469 766.226562 816.140625 C 765.835938 830.175781 763.980469 844.132812 760.113281 857.824219 C 756.570312 870.363281 751.378906 882.496094 745.5 894.316406 Z M 800.828125 945.53125 C 797.304688 947.480469 789.820312 942.832031 779.371094 923.933594 C 767.457031 902.332031 760.515625 879.660156 761.734375 874.714844 C 766.566406 876.320312 782.054688 894.269531 793.984375 915.871094 C 799.238281 925.398438 802.234375 933.007812 802.886719 938.449219 C 803.324219 942.164062 802.625 944.546875 800.828125 945.53125 Z M 800.828125 945.53125 " fill-opacity="1" fill-rule="nonzero"/></g></svg>